<svg version="1.1" id="Layer_1" xmlns="http://www.w3.org/2000/svg" xmlns:xlink="http://www.w3.org/1999/xlink" x="0px" y="0px"
	 viewBox="0 0 111 111" style="enable-background:new 0 0 111 111;" xml:space="preserve">
<style type="text/css">
	.st0{fill-rule:evenodd;clip-rule:evenodd;fill:#FFFFFF}
</style>
<path class="st0" d="M0,6.94C0,3.11,3.11,0,6.94,0h13.88c3.83,0,6.94,3.11,6.94,6.94v13.88c0,3.83-3.11,6.94-6.94,6.94H6.94
	C3.11,27.75,0,24.64,0,20.81V6.94z M0,48.56c0-3.83,3.11-6.94,6.94-6.94h13.88c3.83,0,6.94,3.11,6.94,6.94v13.88
	c0,3.83-3.11,6.94-6.94,6.94H6.94C3.11,69.38,0,66.27,0,62.44V48.56z M48.56,0c-3.83,0-6.94,3.11-6.94,6.94v13.88
	c0,3.83,3.11,6.94,6.94,6.94h13.88c3.83,0,6.94-3.11,6.94-6.94V6.94c0-3.83-3.11-6.94-6.94-6.94H48.56z M41.62,48.56
	c0-3.83,3.11-6.94,6.94-6.94h13.88c3.83,0,6.94,3.11,6.94,6.94v13.88c0,3.83-3.11,6.94-6.94,6.94H48.56c-3.83,0-6.94-3.11-6.94-6.94
	V48.56z M90.19,0c-3.83,0-6.94,3.11-6.94,6.94v13.88c0,3.83,3.11,6.94,6.94,6.94h13.88c3.83,0,6.94-3.11,6.94-6.94V6.94
	c0-3.83-3.11-6.94-6.94-6.94H90.19z M83.25,48.56c0-3.83,3.11-6.94,6.94-6.94h13.88c3.83,0,6.94,3.11,6.94,6.94v13.88
	c0,3.83-3.11,6.94-6.94,6.94H90.19c-3.83,0-6.94-3.11-6.94-6.94V48.56z M6.94,83.25C3.11,83.25,0,86.36,0,90.19v13.88
	c0,3.83,3.11,6.94,6.94,6.94h13.88c3.83,0,6.94-3.11,6.94-6.94V90.19c0-3.83-3.11-6.94-6.94-6.94H6.94z M41.62,90.19
	c0-3.83,3.11-6.94,6.94-6.94h13.88c3.83,0,6.94,3.11,6.94,6.94v13.88c0,3.83-3.11,6.94-6.94,6.94H48.56c-3.83,0-6.94-3.11-6.94-6.94
	V90.19z M90.19,83.25c-3.83,0-6.94,3.11-6.94,6.94v13.88c0,3.83,3.11,6.94,6.94,6.94h13.88c3.83,0,6.94-3.11,6.94-6.94V90.19
	c0-3.83-3.11-6.94-6.94-6.94H90.19z"/>
</svg>
