<svg version="1.1" xmlns="http://www.w3.org/2000/svg" xmlns:xlink="http://www.w3.org/1999/xlink" x="0px" y="0px"
	 viewBox="0 0 388 388" style="enable-background:new 0 0 1584.83 388.31;" xml:space="preserve">
<style type="text/css">
	.st6{fill-rule:evenodd;clip-rule:evenodd;fill:#42526E;}
</style>
<g id="Layer_4">
	<path class="st6" d="M55.05,358.41c-20.16,0-36.5-16.34-36.5-36.5V66.39c0-20.16,16.34-36.5,36.5-36.5h255.52
		c20.16,0,36.5,16.34,36.5,36.5v255.52c0,20.16-16.34,36.5-36.5,36.5H55.05z M73.31,321.91c-10.08,0-18.25-8.17-18.25-18.25v-73.01
		c0-10.08,8.17-18.25,18.25-18.25h182.52c10.08,0,18.25,8.17,18.25,18.25v73.01c0,10.08-8.17,18.25-18.25,18.25H73.31z
		 M55.05,157.64c0,10.08,8.17,18.25,18.25,18.25h109.51c10.08,0,18.25-8.17,18.25-18.25V84.64c0-10.08-8.17-18.25-18.25-18.25H73.31
		c-10.08,0-18.25,8.17-18.25,18.25V157.64z"/>
</g>
</svg>
