<svg version="1.1" xmlns="http://www.w3.org/2000/svg" xmlns:xlink="http://www.w3.org/1999/xlink" x="0px" y="0px"
	 viewBox="0 0 512 512" style="enable-background:new 0 0 512 512;" xml:space="preserve">
<style type="text/css">
	.st0{fill-rule:evenodd;clip-rule:evenodd;}
</style>
<g id="Board">
	<path class="st0" d="M56.89,512C25.47,512,0,486.53,0,455.11V56.89C0,25.47,25.47,0,56.89,0h398.22C486.53,0,512,25.47,512,56.89
		v398.22c0,31.42-25.47,56.89-56.89,56.89H56.89z M85.33,455.11c-15.71,0-28.44-12.74-28.44-28.44V312.89
		c0-15.71,12.74-28.44,28.44-28.44h284.44c15.71,0,28.44,12.73,28.44,28.44v113.78c0,15.71-12.73,28.44-28.44,28.44H85.33z
		 M56.89,199.11c0,15.71,12.74,28.44,28.44,28.44H256c15.71,0,28.44-12.73,28.44-28.44V85.33c0-15.71-12.73-28.44-28.44-28.44H85.33
		c-15.71,0-28.44,12.73-28.44,28.44V199.11z"/>
</g>
</svg>
