<svg version="1.1" xmlns="http://www.w3.org/2000/svg" xmlns:xlink="http://www.w3.org/1999/xlink" x="0px" y="0px"
	 viewBox="0 0 82.2 82.39" style="enable-background:new 0 0 82.2 82.39;" xml:space="preserve">
<style type="text/css">
	.st1{display:inline;}
</style>
<g id="Layer_3">
	<path d="M30.8,5.35c0,3.41,0,6.7,0,10.12c-6.79,0-13.55,0-20.41,0c0,18.9,0,37.67,0,56.52c18.73,0,37.51,0,56.41,0
		c0-6.73,0-13.49,0-20.35c3.48,0,6.82,0,10.24,0c0.02,0.42,0.06,0.81,0.06,1.2c0,6.18,0.01,12.37,0,18.55
		c-0.01,6.7-4.3,10.99-11.01,10.99c-18.35,0.01-36.7,0.01-55.06,0c-6.68,0-11.03-4.34-11.04-10.99C0,53.01,0,34.62,0.01,16.23
		c0-5.56,3.19-9.68,8.3-10.74c0.66-0.14,1.35-0.18,2.03-0.18c6.55-0.01,13.09-0.01,19.64-0.01C30.21,5.3,30.45,5.33,30.8,5.35z"/>
	<path d="M39.97,50.14c-2.68-2.68-5.06-5.05-7.52-7.51c10.64-10.64,21.33-21.32,32.21-32.2c-6.26,0-12.25,0-18.31,0
		c0-3.47,0-6.82,0-10.24c11.96,0,23.86,0,35.85,0c0,11.93,0,23.83,0,35.83c-3.33,0-6.68,0-10.14,0c0-5.97,0-11.97,0-18.18
		C61.23,28.74,50.57,39.47,39.97,50.14z"/>
</g>
</svg>