<svg xmlns="http://www.w3.org/2000/svg" xmlns:xlink="http://www.w3.org/1999/xlink" viewBox="0 0 159.04 144.34"><defs><style>.cls-1{fill:#998dd9;}.cls-2{fill:#6554c0;}.cls-3{fill:url(#linear-gradient);}.cls-4{fill:#b2d4ff;}.cls-5{fill:url(#linear-gradient-2);}.cls-6{fill:#eae6ff;}.cls-7{fill:url(#linear-gradient-3);}.cls-8{fill:#c0b6f2;}.cls-9{fill:#fcc6eb;}.cls-10{fill:url(#linear-gradient-4);}.cls-11{fill:#fff2fb;opacity:0.4;}</style><linearGradient id="linear-gradient" x1="117.4" y1="139.08" x2="133.58" y2="122.91" gradientUnits="userSpaceOnUse"><stop offset="0" stop-color="#0065ff"/><stop offset="1" stop-color="#4c9aff"/></linearGradient><linearGradient id="linear-gradient-2" x1="42.21" y1="151.15" x2="71.14" y2="101.03" gradientUnits="userSpaceOnUse"><stop offset="0" stop-color="#c0b6f2"/><stop offset="1" stop-color="#fcc6eb"/></linearGradient><linearGradient id="linear-gradient-3" x1="83" y1="114.02" x2="132.71" y2="27.91" gradientUnits="userSpaceOnUse"><stop offset="0" stop-color="#c0b6f2"/><stop offset="0.27" stop-color="#cbb9f1"/><stop offset="0.74" stop-color="#e9c1ed"/><stop offset="1" stop-color="#fcc6eb"/></linearGradient><linearGradient id="linear-gradient-4" x1="30.46" y1="70.71" x2="66.36" y2="8.51" xlink:href="#linear-gradient-2"/></defs><g id="Layer_2" data-name="Layer 2"><g id="Layer_1-2" data-name="Layer 1"><path class="cls-1" d="M97.43,20.57a11.71,11.71,0,0,1,2.18-1.17,3.13,3.13,0,0,0,1.82-2h-3a.87.87,0,0,1-.79-1.28,4.65,4.65,0,0,0,.58-2.25V9.62a5.73,5.73,0,0,1,.53-2.4,6,6,0,0,1,9.92-1.79l.08.07a5.9,5.9,0,0,1,1.61,4.11v4.28a4.72,4.72,0,0,0,.58,2.26.87.87,0,0,1-.8,1.27h-3a3.19,3.19,0,0,0,1.84,2A12.26,12.26,0,0,1,111,20.74a11.45,11.45,0,1,0-13.56-.17Z"/><path class="cls-2" d="M107.21,17.42h3a.87.87,0,0,0,.8-1.27,4.72,4.72,0,0,1-.58-2.26V9.61a5.9,5.9,0,0,0-1.61-4.11l-.08-.07a6,6,0,0,0-9.92,1.79,5.73,5.73,0,0,0-.53,2.4v4.27a4.65,4.65,0,0,1-.58,2.25.87.87,0,0,0,.79,1.28h3a3.13,3.13,0,0,1-1.82,2,11.71,11.71,0,0,0-2.18,1.17,11.41,11.41,0,0,0,13.56.17,12.26,12.26,0,0,0-1.94-1.34A3.19,3.19,0,0,1,107.21,17.42Z"/><path class="cls-3" d="M125.49,119.56A11.43,11.43,0,1,0,136.94,131,11.44,11.44,0,0,0,125.49,119.56Z"/><path class="cls-2" d="M4.37,96.75A12.5,12.5,0,0,1,6.54,95.6a3.16,3.16,0,0,0,2-2.91h0a3.16,3.16,0,0,0-1.13-2.41,6,6,0,1,1,7.72,0A3.11,3.11,0,0,0,14,92.69a3.15,3.15,0,0,0,2,2.91,15.1,15.1,0,0,1,2.12,1.47,11.45,11.45,0,1,0-13.73-.32Z"/><path class="cls-1" d="M14,92.69a3.11,3.11,0,0,1,1.09-2.38,6,6,0,1,0-7.72,0A3.16,3.16,0,0,1,8.5,92.69h0a3.16,3.16,0,0,1-2,2.91,12.5,12.5,0,0,0-2.17,1.15,11.37,11.37,0,0,0,13.73.32A15.1,15.1,0,0,0,16,95.6,3.15,3.15,0,0,1,14,92.69Z"/><rect class="cls-4" x="123.46" y="124.72" width="4.07" height="12.56" rx="0.9"/><rect class="cls-4" x="123.46" y="124.72" width="4.07" height="12.56" rx="0.9" transform="translate(256.49 5.51) rotate(90)"/><rect class="cls-5" x="26.89" y="107.84" width="59.57" height="36.5" rx="4.82"/><path class="cls-6" d="M81.64,144.34H31.71a4.82,4.82,0,0,1-4.82-4.82v-3.75H86.46v3.75A4.82,4.82,0,0,1,81.64,144.34Z"/><rect class="cls-7" x="56.68" y="39.61" width="102.36" height="62.72" rx="8.29"/><path class="cls-6" d="M150.75,102.33H65A8.29,8.29,0,0,1,56.68,94V87.6H159V94A8.29,8.29,0,0,1,150.75,102.33Z"/><polygon class="cls-8" points="131.77 57.88 119.17 79.71 144.38 79.71 131.77 57.88"/><rect class="cls-9" x="75.48" y="59.21" width="20.5" height="20.5"/><rect class="cls-10" x="11.45" y="16.96" width="73.93" height="45.3" rx="5.99"/><path class="cls-6" d="M79.39,62.26h-62a6,6,0,0,1-6-6V51.62H85.38v4.65A6,6,0,0,1,79.39,62.26Z"/><path class="cls-11" d="M124.14,79.71H93.37a15.39,15.39,0,0,1,30.77,0Z"/><polygon class="cls-8" points="48.41 25.54 37.2 44.95 59.62 44.95 48.41 25.54"/><path class="cls-9" d="M67.58,130.17H45.78a10.9,10.9,0,0,1,21.8,0Z"/></g></g></svg>