<?xml version="1.0" encoding="utf-8"?>
<!-- Generator: Adobe Illustrator 25.4.1, SVG Export Plug-In . SVG Version: 6.00 Build 0)  -->
<svg version="1.1" xmlns="http://www.w3.org/2000/svg" xmlns:xlink="http://www.w3.org/1999/xlink" x="0px" y="0px"
	 viewBox="0 0 173.83 173.83" style="enable-background:new 0 0 173.83 173.83;" xml:space="preserve">
<style type="text/css">
	.st1{display:inline;fill:#7200DD;}
	.st2{display:inline;fill:#FFFFFF;}
	.st3{display:inline;}
	.st4{fill:#FFFFFF;}
	.st5{fill:#7200DD;}
</style>
<g id="Layer_4">
	<g>
		<path d="M0,97.35c0-6.95,0-13.91,0-20.86c1.92-3.18,4.19-5.81,8.41-5.56c1.54,0.09,3.15,0.28,4.61-0.08
			c1.09-0.27,2.5-1.14,2.89-2.1c2.82-6.97,5.42-14.03,8.35-21.75c-0.89-0.87-2.49-2.34-3.98-3.9c-3.77-3.94-3.82-8.33-0.05-12.26
			c3.47-3.62,7.01-7.17,10.62-10.65c3.87-3.73,8.36-3.7,12.25,0.12c1.54,1.51,2.77,3.33,3.54,4.27c7.61-3.04,14.02-5.96,20.69-8.09
			c3-0.96,3.96-2.17,3.59-5.03C70.26,6.43,71.65,2.36,76.49,0c6.95,0,13.91,0,20.86,0c3.13,1.95,5.85,4.15,5.59,8.38
			c-0.09,1.54-0.27,3.15,0.08,4.61c0.27,1.11,1.11,2.57,2.07,2.96c6.97,2.81,14.03,5.39,22.22,8.48c0.66-0.81,1.9-2.62,3.44-4.14
			c3.87-3.82,8.34-3.86,12.24-0.11c3.7,3.57,7.35,7.2,10.89,10.93c3.41,3.59,3.39,8.07-0.09,11.68c-1.58,1.64-3.54,2.92-4.57,3.75
			c3.08,7.71,6,14.13,8.15,20.79c0.95,2.94,2.07,4.01,4.98,3.62c5.02-0.68,9.07,0.77,11.48,5.54c0,6.95,0,13.91,0,20.86
			c-1.97,3.11-4.16,5.83-8.4,5.57c-1.66-0.1-3.36-0.16-5,0.06c-0.82,0.11-2.01,0.7-2.27,1.37c-2.9,7.33-5.65,14.72-8.58,22.48
			c1.04,1.02,2.55,2.42,3.96,3.9c3.77,3.96,3.84,8.34,0.08,12.26c-3.47,3.62-7.01,7.17-10.62,10.65c-3.88,3.74-8.37,3.71-12.25-0.09
			c-1.54-1.51-2.79-3.32-3.61-4.32c-7.54,3.04-13.94,5.98-20.6,8.15c-2.95,0.96-4.02,2.08-3.62,4.99c0.68,5.03-0.78,9.07-5.57,11.47
			c-6.95,0-13.91,0-20.86,0c-3.18-1.91-5.84-4.16-5.59-8.38c0.09-1.54,0.28-3.15-0.08-4.61c-0.27-1.1-1.13-2.52-2.1-2.91
			c-6.96-2.84-14.02-5.45-22.16-8.56c-0.7,0.85-1.94,2.66-3.48,4.17c-3.88,3.81-8.37,3.84-12.24,0.1
			c-3.7-3.57-7.34-7.21-10.88-10.93c-3.41-3.58-3.38-8.07,0.1-11.67c1.59-1.64,3.54-2.93,4.58-3.77
			c-3.08-7.68-6.02-14.09-8.16-20.76c-0.95-2.95-2.06-4.01-4.97-3.63C6.49,103.54,2.39,102.17,0,97.35z"/>
		<path class="st5" d="M151.65,37.12c-0.41-0.91-0.53-1.62-0.95-2.04c-3.97-4.04-7.89-8.13-12.1-11.91c-0.68-0.61-3-0.24-3.98,0.48
			c-2.05,1.51-3.76,3.5-5.52,5.38c-1.54,1.63-2.99,2.04-5.04,0.69c-7.03-4.65-14.75-7.7-22.95-9.7c-1.23-0.3-2.66-2.19-2.91-3.55
			c-0.47-2.49-0.15-5.12-0.14-7.7c0.01-2.36-1.19-3.65-3.51-3.68C89.54,5.03,84.52,5.03,79.5,5.07c-2.48,0.02-3.79,1.26-3.74,3.85
			c0.05,2.44-0.08,4.9,0.03,7.34c0.1,2.34-0.92,3.3-3.17,3.99c-5.51,1.68-10.96,3.6-16.31,5.72c-3.17,1.26-6.32,4.62-9.11,4.25
			c-2.82-0.37-5.23-4.14-7.74-6.5c-1.72-1.61-3.31-1.77-5.03-0.05c-3.54,3.56-7.09,7.11-10.67,10.63c-1.87,1.85-1.68,3.56,0.12,5.31
			c1.75,1.7,3.41,3.51,5.21,5.16c1.71,1.58,1.56,2.96,0.6,5.06c-3.37,7.45-6.56,14.99-9.41,22.64c-0.88,2.37-1.8,3.29-4.27,3.3
			C4.11,75.8,5.04,73.9,5.04,87.05c0,12.5-0.97,11.06,10.88,11.01c2.43-0.01,3.45,0.86,4.34,3.25c2.86,7.65,6.03,15.2,9.39,22.65
			c0.94,2.09,1.06,3.37-0.53,5.08c-7.63,8.26-7.61,8.32,0.33,16.19c8.48,8.41,6.51,8.3,14.82-0.02c1.93-1.94,3.35-2.1,5.97-0.86
			c7.27,3.43,14.76,6.42,22.29,9.24c2.15,0.81,3.16,1.59,3.25,3.93c0.44,11.28,0.49,11.27,11.74,11.28
			c11.86,0.01,10.49,0.72,10.54-10.21c0-0.26,0.02-0.52,0-0.77c-0.24-2.47,0.84-3.52,3.3-4.25c5.52-1.64,10.95-3.62,16.29-5.77
			c3.06-1.23,6.11-4.61,8.74-4.22c2.86,0.43,5.32,4.02,7.8,6.4c2.04,1.96,3.74,1.82,5.6-0.15c1.86-1.96,3.82-3.83,5.73-5.74
			c8.02-8.03,7.81-6.41-0.06-14.32c-0.09-0.09-0.17-0.19-0.28-0.27c-2.26-1.73-2.16-3.46-0.79-5.96c2.76-5.05,5.16-10.31,7.44-15.61
			c1.25-2.91,1.07-7.23,3.13-8.77c2.22-1.66,6.31-0.96,9.59-1.02c2.94-0.05,4.23-1.38,4.22-4.24c-0.02-4.51-0.08-9.01,0.02-13.52
			c0.08-3.5-1.49-4.94-4.93-4.66c-1.79,0.14-3.61-0.1-5.4,0.05c-2.92,0.25-4.21-0.81-5.05-3.81c-1.6-5.65-3.81-11.15-6.02-16.61
			c-1.14-2.82-4.23-5.65-3.84-8.06c0.43-2.66,3.86-4.82,5.93-7.23C150.3,39.12,150.97,38.06,151.65,37.12z"/>
		<circle cx="86.91" cy="86.93" r="51.5"/>
		<circle class="st4" cx="86.88" cy="86.93" r="46.1"/>
		<path d="M52.49,95.62c0.51-3.11,0.92-6.23,1.54-9.31c1.03-5.14,2.39-10.21,4.87-14.87c0.93-1.74,2-3.46,3.3-4.93
			c3.82-4.33,8.69-5.59,14.26-4.39c2.53,0.55,5.04,1.24,7.59,1.65c4.49,0.73,8.77-0.49,13.08-1.57c6.3-1.58,11.72,0.47,15.54,5.74
			c3.26,4.49,4.99,9.66,6.19,14.98c0.94,4.16,1.5,8.4,2.24,12.6c0.04,0.24,0.16,0.47,0.24,0.7c0,1.84,0,3.67,0,5.51
			c-0.29,1.28-0.51,2.58-0.89,3.83c-1.96,6.34-8.16,8.5-13.55,4.64c-1.55-1.11-3-2.49-4.18-3.99c-2.37-3.02-5.36-4.77-9.14-5.22
			c-4.93-0.58-9.86-0.62-14.76,0.24c-3.14,0.55-5.55,2.28-7.64,4.68c-1.52,1.75-3.22,3.45-5.14,4.71
			c-4.71,3.08-10.07,1.31-12.13-3.92c-0.7-1.77-0.96-3.72-1.41-5.58C52.49,99.29,52.49,97.45,52.49,95.62z"/>
		<path class="st5" d="M56.91,98.86c0.28,1.54,0.46,3.74,1.11,5.8c0.96,3.05,3.38,3.82,5.98,1.92c1.5-1.1,2.82-2.5,4.02-3.93
			c2.38-2.82,5.28-4.72,8.87-5.61c4.77-1.18,9.61-0.98,14.45-0.8c6.09,0.22,11.32,2.24,15.09,7.35c0.86,1.16,2.04,2.16,3.23,3
			c2.71,1.9,5.36,1.01,6.37-2.13c0.43-1.34,0.62-2.79,0.69-4.2c0.23-5.03-0.77-9.94-1.87-14.8c-1.15-5.12-2.56-10.18-5.64-14.56
			c-2.98-4.25-6.77-5.68-11.72-4.15c-6.88,2.14-13.69,2.25-20.58,0.14c-6.84-2.1-10.83,0.83-13.4,5.64
			C59.21,80.53,57.69,89.26,56.91,98.86z"/>
		<path class="st4" d="M75.01,80.44c1.25,0,2.36,0,3.47,0c2.08,0,2.11,0.77,2.08,1.94c-0.03,1.09,0,1.79-2.09,1.79
			c-1.11,0-2.22,0-3.45,0c0,1.22,0,2.33,0,3.43c0,2.11-0.76,2.13-1.91,2.11c-1.09-0.02-1.81,0-1.81-2.08c0-1.11,0-2.22,0-3.47
			c-1.21,0-2.31,0-3.41,0c-2.13,0-2.14-0.72-2.13-1.88c0-1.14,0-1.85,2.16-1.85c1.03,0,2.07-0.02,3.1-0.03
			c0.04,0,0.07-0.02,0.29-0.1c0-1.03,0-2.13,0-3.23c0-2.17,0.68-2.16,1.84-2.17c1.17-0.01,1.89,0,1.89,2.12
			C75.01,78.11,75.01,79.18,75.01,80.44z"/>
		<path class="st4" d="M107.56,82.37c-0.04,1.48-1.4,2.8-2.87,2.8c-1.55-0.01-2.89-1.42-2.81-2.98c0.07-1.52,1.42-2.77,2.93-2.71
			C106.3,79.54,107.61,80.9,107.56,82.37z"/>
		<path class="st4" d="M94.88,82.54c-0.13,1.52-1.52,2.75-2.99,2.63c-1.48-0.12-2.75-1.54-2.66-2.99c0.09-1.57,1.56-2.84,3.1-2.68
			C93.87,79.66,95.01,81.01,94.88,82.54z"/>
		<path class="st4" d="M101.18,88.65c0,1.59-1.19,2.76-2.79,2.76c-1.6,0-2.78-1.16-2.8-2.75c-0.02-1.65,1.23-2.89,2.86-2.85
			C100.01,85.85,101.19,87.07,101.18,88.65z"/>
		<path class="st4" d="M98.45,73.21c1.61,0.03,2.75,1.2,2.73,2.81c-0.02,1.57-1.22,2.78-2.79,2.78c-1.62,0-2.85-1.28-2.8-2.92
			C95.64,74.28,96.82,73.18,98.45,73.21z"/>
	</g>
</g>
</svg>