<svg version="1.1" xmlns="http://www.w3.org/2000/svg" xmlns:xlink="http://www.w3.org/1999/xlink" x="0px" y="0px"
	 viewBox="0 0 512 512" style="enable-background:new 0 0 512 512;" xml:space="preserve">
<style type="text/css">
	.st2{fill-rule:evenodd;clip-rule:evenodd;}
</style>
<g id="Profile">
	<g>
		<path class="st2" d="M353.02,246.47c28.06-25.97,45.61-63.07,45.61-104.25C398.63,63.67,334.77,0,256,0
			S113.38,63.67,113.38,142.22c0,41.18,17.55,78.28,45.6,104.25C70.99,282.31,7.41,365.44,0,464.19C4.36,491.29,27.92,512,56.33,512
			h399.35c28.4,0,51.96-20.71,56.32-47.81C504.6,365.44,441.02,282.31,353.02,246.47z M170.43,142.22
			c0-47.13,38.31-85.33,85.57-85.33s85.58,38.2,85.58,85.33s-38.32,85.33-85.58,85.33S170.43,189.35,170.43,142.22z M58.35,455.11
			C72.19,358.62,155.41,284.44,256,284.44s183.81,74.18,197.66,170.67H58.35z M455.67,484.21v-1.31c0.01,0.21,0.01,0.43,0.01,0.65
			C455.68,483.77,455.68,483.99,455.67,484.21z"/>
	</g>
</g>
</svg>
