<?xml version="1.0" encoding="utf-8"?>
<!-- Generator: Adobe Illustrator 25.4.1, SVG Export Plug-In . SVG Version: 6.00 Build 0)  -->
<svg version="1.1" id="Layer_1" xmlns="http://www.w3.org/2000/svg" xmlns:xlink="http://www.w3.org/1999/xlink" x="0px" y="0px"
	 viewBox="0 0 199.59 199.71" style="enable-background:new 0 0 199.59 199.71;" xml:space="preserve">
<path d="M199.59,36.14c0.13,5.65-2.2,10.22-6.12,14.14c-10.62,10.6-21.21,21.22-31.8,31.84c-21.41,21.48-42.81,42.96-64.21,64.45
	c-9.08,9.11-18.14,18.24-27.22,27.35c-5.99,6-13.05,10.12-21.23,12.43c-7.72,2.18-15.37,4.58-23.06,6.86
	c-7.15,2.12-14.32,4.18-21.48,6.29c-1.36,0.4-2.66,0.3-3.62-0.7c-0.93-0.97-1-2.27-0.63-3.54c2.44-8.27,4.9-16.53,7.34-24.8
	c2.05-6.94,4.04-13.89,6.13-20.81c1.68-5.59,4.19-10.77,7.72-15.45c4.42-5.86,9.99-10.59,15.09-15.79
	c6.57-6.7,13.3-13.24,19.95-19.85c14.65-14.57,29.3-29.15,43.96-43.72c10.54-10.48,21.08-20.95,31.63-31.42
	c5.93-5.89,11.84-11.8,17.81-17.64c5.66-5.54,12.32-7.08,19.84-4.61c2.68,0.88,5.01,2.43,7.01,4.4
	c5.78,5.72,11.53,11.45,17.25,17.23C197.69,26.57,199.5,30.98,199.59,36.14z M164.8,70.61c8.18-8.24,16.41-16.42,24.59-24.66
	c2.61-2.63,4.07-5.83,4.14-10.64c-0.03-2.51-1.42-5.56-3.87-8.05c-5.7-5.79-11.45-11.53-17.24-17.24c-1.94-1.91-4.27-3.26-7.02-3.7
	c-4.99-0.79-9.11,0.99-12.61,4.43c-1.66,1.63-3.22,3.34-4.85,4.99c-6.23,6.31-18.13,18.41-24.38,24.7l0.33-0.29
	c-0.51,0.46-0.96,0.85-1.38,1.26c-16.42,16.42-32.83,32.85-49.25,49.27c-14.74,14.75-29.48,29.49-44.24,44.22
	c-0.71,0.71-1.03,1.41-0.91,2.46c0.28,2.44,0.42,4.9,0.62,7.36c0.65,7.73,1.31,15.45,1.93,23.18c0.06,0.78,0.43,1.05,1.13,1.1
	c1.3,0.1,2.59,0.22,3.88,0.33c8.84,0.74,17.67,1.47,26.51,2.24c1.12,0.1,1.9-0.21,2.7-1.01C96.06,139.33,133.58,101.79,164.8,70.61z
	 M7.68,192.11c15.96-5.03,31.93-8.75,47.35-14.5c-0.52-0.31-1.03-0.45-1.54-0.51c-1.8-0.2-3.6-0.36-5.4-0.56
	c-6.5-0.73-12.99-1.5-19.49-2.21c-2.75-0.3-3.37-0.83-3.68-3.54c-0.06-0.51-0.07-1.02-0.11-1.53c-0.58-7.08-1.15-14.16-1.74-21.24
	c-0.1-1.18-0.25-2.35-0.38-3.52c-0.55,0.39-0.88,0.83-1.05,1.32c-1.48,4.29-3.06,8.55-4.37,12.89c-2.69,8.96-5.23,17.96-7.82,26.95
	C8.88,187.64,8.35,189.64,7.68,192.11z"/>
</svg>
