<?xml version="1.0" encoding="utf-8"?>
<!-- Generator: Adobe Illustrator 25.4.1, SVG Export Plug-In . SVG Version: 6.00 Build 0)  -->
<svg version="1.1" xmlns="http://www.w3.org/2000/svg" xmlns:xlink="http://www.w3.org/1999/xlink" x="0px" y="0px"
	 viewBox="0 0 397.31 397.31" style="enable-background:new 0 0 397.31 397.31;" xml:space="preserve">
<style type="text/css">
	.st1{fill:#ff385c}
</style>
<g id="Layer_2" class='st1'>
	<g>
		<path d="M2.23,13.28c2.65,0,4.18,0,5.71,0c74.34-0.01,148.69-0.04,223.03-0.02c67.96,0.02,124.07,46.33,137.05,113.05
			c12.95,66.53-27.85,135.48-92.38,155.87c-1.64,0.52-4.46,0.11-5.59-1.01c-27.51-27.26-54.86-54.68-82.23-82.08
			c-0.31-0.31-0.52-0.74-1.07-1.54c1.41-0.17,2.53-0.42,3.65-0.42c13.37,0.04,26.75-0.05,40.12,0.22
			c27.01,0.55,48.67-20.81,47.87-47.43c-0.8-26.78-24.04-47.14-50.96-44.69c-2.01,0.18-4.03,0.28-6.05,0.28
			c-40.91,0.01-81.81,0.05-122.71-0.15c-2.58-0.01-5.79-1.36-7.63-3.17C62.42,73.84,33.98,45.32,5.5,16.82
			C4.64,15.97,3.85,15.04,2.23,13.28z"/>
		<path d="M0.45,197.13c9.1,0,17.02,0,24.94,0c33.59-0.01,67.18-0.06,100.76,0.09c2.34,0.01,5.32,0.93,6.92,2.52
			c60.6,60.36,121.06,120.85,181.55,181.33c0.66,0.66,1.25,1.38,2.36,2.61c-1.77,0.15-3.05,0.35-4.32,0.35
			c-40.58,0.01-81.17,0.05-121.75-0.1c-2.17-0.01-4.88-1.11-6.41-2.64C124.35,321.36,64.32,261.31,4.28,201.27
			C3.22,200.21,2.23,199.07,0.45,197.13z"/>
	</g>
</g>
</svg>