<?xml version="1.0" encoding="utf-8"?>
<!-- Generator: Adobe Illustrator 25.4.1, SVG Export Plug-In . SVG Version: 6.00 Build 0)  -->
<svg version="1.1" id="Layer_1" xmlns="http://www.w3.org/2000/svg" xmlns:xlink="http://www.w3.org/1999/xlink" x="0px" y="0px"
	 viewBox="0 0 507.62 393.65" style="enable-background:new 0 0 507.62 393.65;" xml:space="preserve">
<style type="text/css">
	.st0{opacity:0.5;}
	.st1{fill:#EAE6FF;}
	.st2{fill:#B2D4FF;}
	.st3{fill:#FFFFFF;}
	.st4{fill:#DFE1E5;}
	.st5{fill:#C0B6F2;}
	.st6{fill:#EFF7FF;}
	.st7{fill:#9CB4DB;}
	.st8{fill:#31CBFF;}
	.st9{fill:url(#SVGID_1_);}
	.st10{opacity:0.29;fill:#4B4C4C;enable-background:new    ;}
	.st11{fill:url(#Card-6_00000026847350287879204370000011180730374560414654_);}
	.st12{fill:url(#SVGID_00000042711817286766644910000013579576853018871729_);}
	.st13{fill:url(#SVGID_00000170274069203036795680000001628096476951389825_);}
	.st14{fill:url(#SVGID_00000022520164720666259760000001191610269415497900_);}
	.st15{fill:url(#SVGID_00000176045137574935773910000009406264831221253817_);}
	.st16{fill:url(#SVGID_00000119816826809718720850000014296083095480122803_);}
	.st17{fill:url(#Card-7_00000070798151886772467030000014103526053682291343_);}
	.st18{fill:url(#SVGID_00000096770036035820974190000005890573229950531252_);}
	.st19{fill:url(#SVGID_00000073705060168601593750000008102015590146022072_);}
	.st20{fill:url(#SVGID_00000132054465260293563460000000988866269427789187_);}
	.st21{fill:url(#Card-8_00000137094556970475679280000004392558319828860809_);}
	.st22{fill:url(#SVGID_00000004542260105831148700000008867531050770723994_);}
	.st23{fill:url(#SVGID_00000021811127910334673630000011417313083226168192_);}
	.st24{fill-rule:evenodd;clip-rule:evenodd;fill:#BBCBFF;}
	.st25{fill-rule:evenodd;clip-rule:evenodd;fill:#C7D4FF;fill-opacity:0.3;}
	.st26{fill-rule:evenodd;clip-rule:evenodd;fill:url(#SVGID_00000114792763226868999510000001392627942814942883_);}
	.st27{fill:url(#arm_00000141424092022100863430000010780827840201509029_);}
	.st28{fill:#CD6161;}
	.st29{fill:url(#body_00000003784853084493974950000007868721570069045165_);}
	.st30{fill:url(#arm-2_00000010286306527568688150000015965281295540490130_);}
	.st31{fill:#FFCCCC;}
	.st32{fill:none;stroke:#2B2E40;stroke-width:2.69;stroke-linecap:round;stroke-linejoin:round;}
	.st33{fill:#344563;}
	.st34{fill:#00E7FF;}
	.st35{fill:#E68181;}
	.st36{fill:#303048;}
	.st37{fill:#2B2E40;}
	.st38{fill:#505F79;}
	.st39{fill:url(#SVGID_00000172424654976710781270000017413921444917170621_);}
	.st40{fill:url(#SVGID_00000183241364638399641470000000393678635448326334_);}
	.st41{fill:#303047;}
	.st42{clip-path:url(#SVGID_00000130628489253852734660000007994030802785831051_);}
	.st43{fill:#00CCFF;}
	.st44{fill:#67FFCC;}
	.st45{clip-path:url(#SVGID_00000143595412490832363820000018442946147155866255_);}
	.st46{clip-path:url(#SVGID_00000039099850739651589250000012937286407410188186_);}
	.st47{fill:url(#SVGID_00000100380715519267449990000002963231265293134999_);}
	.st48{fill:#88ACFF;}
	.st49{clip-path:url(#SVGID_00000177485807980111351050000011333125096564009368_);}
	.st50{fill:#F2EDF2;}
	.st51{fill:url(#SVGID_00000116940253844380487830000012540590039680505748_);}
	.st52{fill:url(#SVGID_00000040571731340305527490000005032959765223730092_);}
	.st53{fill:url(#SVGID_00000136378991011908441710000012732382793648798648_);}
	.st54{opacity:0.49;}
	.st55{fill:none;stroke:#303048;stroke-width:2.17;stroke-linecap:round;stroke-linejoin:round;}
	.st56{fill:#FF6666;}
	.st57{fill:#FF9966;}
	.st58{fill:#E86456;}
	.st59{fill:#F17B6B;}
	.st60{clip-path:url(#SVGID_00000160165463554776381340000007562905554680263071_);}
	.st61{fill:#1F2231;}
	.st62{fill:#454D6A;}
	.st63{clip-path:url(#SVGID_00000030465552431210668710000004582544017202314116_);}
	.st64{fill:#25293A;}
	.st65{clip-path:url(#SVGID_00000147939706910216418540000002543181761443105673_);}
	.st66{fill:url(#SVGID_00000018929861811325142890000010906141859221505450_);}
	.st67{clip-path:url(#SVGID_00000003068765601504885350000002107027312646948488_);}
	.st68{fill:#232048;}
	.st69{fill:#232638;}
	.st70{fill:#21304A;}
	.st71{fill:url(#hair_00000072977246624268727160000009045957490022614919_);}
	.st72{clip-path:url(#SVGID_00000141431281804983369890000002377226508875999395_);}
	.st73{clip-path:url(#SVGID_00000009556806885457062670000001338351123981344143_);}
	.st74{fill:#998DD9;}
	.st75{fill:none;stroke:#998DD9;stroke-width:9.4;stroke-linecap:round;stroke-linejoin:round;}
	.st76{fill:none;stroke:#C0B6F2;stroke-width:9.4;stroke-linecap:round;stroke-linejoin:round;}
</style>
<g id="Layer_2_00000029025530179250914050000011330496467299649207_">
	<g id="list" class="st0">
		<path id="BG" class="st1" d="M3.71,0.12L122.84,0c2.05,0,3.71,1.66,3.71,3.71l0.13,120.53c0,2.05-1.66,3.71-3.71,3.71L3.84,128.07
			c-2.05,0-3.71-1.66-3.71-3.71L0,3.84C0,1.79,1.66,0.13,3.71,0.12z"/>
		<circle id="Options2" class="st2" cx="118.07" cy="8.68" r="2.23"/>
		<circle id="Options2-2" class="st2" cx="109.58" cy="8.72" r="2.23"/>
		<circle id="Options2-3" class="st2" cx="101.09" cy="8.76" r="2.23"/>
		<path class="st2" d="M53.46,12.27L53.46,12.27L9.05,12.06C7.36,12.06,6,10.69,6,9c0-1.69,1.37-3.05,3.06-3.06l0,0l44.41,0.21
			c1.69,0,3.06,1.37,3.06,3.06C56.52,10.9,55.15,12.27,53.46,12.27z"/>
		<path id="Card" class="st3" d="M10.42,20.94h105.53c2.54,0,4.6,2.06,4.6,4.6v75.49c0,2.54-2.06,4.6-4.6,4.6H10.42
			c-2.54,0-4.6-2.06-4.6-4.6V25.54C5.82,23,7.88,20.94,10.42,20.94z"/>
		<path class="st4" d="M18.71,37.65c-1.69,0-3.06-1.37-3.06-3.06c0-1.69,1.37-3.05,3.06-3.06l91-0.09l0,0
			c1.69,0,3.06,1.37,3.06,3.06c0,1.69-1.37,3.05-3.06,3.06C109.71,37.56,18.71,37.65,18.71,37.65z"/>
		<path class="st4" d="M18.64,50.86c-1.69,0-3.06-1.37-3.06-3.06c0-1.69,1.37-3.06,3.06-3.06c0,0,0.01,0,0.01,0l74.91-0.18l0,0
			c1.69,0,3.06,1.37,3.06,3.06c0,1.69-1.37,3.06-3.06,3.06c0,0-0.01,0-0.01,0L18.64,50.86z"/>
		<path class="st4" d="M18.64,91.47c-1.69,0-3.06-1.37-3.06-3.06c0-1.69,1.37-3.05,3.06-3.06l62.58-0.19l0,0
			c1.69,0,3.06,1.37,3.06,3.06c0,1.69-1.37,3.05-3.06,3.06l-62.57,0.19H18.64z"/>
		<g id="Add_Card">
			<path class="st2" d="M48.59,118.65c-1.69,0-3.06-1.37-3.06-3.06c0-1.69,1.37-3.05,3.06-3.06h29.52l0,0
				c1.69,0,3.06,1.37,3.06,3.06c0,1.69-1.37,3.05-3.06,3.06H48.59z"/>
		</g>
	</g>
	<g id="list-2">
		<path class="st1" d="M304.27,213.72c0.01,2.66-2.15,4.82-4.81,4.83c0,0-0.01,0-0.01,0l-116.9,0.13c-2.66-0.01-4.82-2.16-4.83-4.82
			L177.5,6.44c-0.01-2.66,2.15-4.82,4.81-4.83c0,0,0.01,0,0.01,0l116.9-0.13c2.66,0.01,4.82,2.16,4.83,4.82v20.36l0.09,85.25
			L304.27,213.72z"/>
		<g id="Add_Card-2">
			<path class="st2" d="M226.13,209.31c-1.69,0-3.06-1.37-3.06-3.06c0-1.69,1.37-3.05,3.06-3.06h29.52l0,0
				c1.69,0,3.06,1.37,3.06,3.06c0,1.69-1.37,3.05-3.06,3.06H226.13L226.13,209.31z"/>
		</g>
		<path id="Card-2" class="st5" d="M187.91,22.61h105.53c2.54,0,4.6,2.06,4.6,4.6v75.49c0,2.54-2.06,4.6-4.6,4.6H187.91
			c-2.54,0-4.6-2.06-4.6-4.6V27.21C183.31,24.67,185.37,22.61,187.91,22.61z"/>
		<path id="Card-3" class="st6" d="M187.82,111.71h105.53c2.54,0,4.6,2.06,4.6,4.6v75.49c0,2.54-2.06,4.6-4.6,4.6H187.82
			c-2.54,0-4.6-2.06-4.6-4.6v-75.49C183.22,113.77,185.28,111.71,187.82,111.71z"/>
		<path class="st7" d="M189.2,125.23c-1.69,0-3.06-1.37-3.06-3.06c0-1.69,1.37-3.05,3.06-3.06l91-0.08l0,0
			c1.69-0.1,3.13,1.19,3.23,2.88c0.1,1.69-1.19,3.13-2.88,3.23c-0.12,0.01-0.23,0.01-0.35,0L189.2,125.23L189.2,125.23z"/>
		<path class="st7" d="M189.13,138.45c-1.69,0-3.06-1.37-3.06-3.06c0-1.69,1.37-3.05,3.06-3.06l74.91-0.19l0,0
			c1.69,0,3.06,1.37,3.06,3.06c0,1.69-1.37,3.05-3.06,3.06L189.13,138.45L189.13,138.45z"/>
		<path class="st7" d="M189.13,151.98c-1.69,0-3.06-1.37-3.06-3.06c0-1.69,1.37-3.05,3.06-3.06l91-0.19l0,0
			c1.69,0,3.06,1.37,3.06,3.06c0,1.69-1.37,3.05-3.06,3.06L189.13,151.98z"/>
		<path class="st8" d="M189.32,184.41H207c1.79,0,3.24,1.45,3.24,3.24v2.8c0,1.79-1.45,3.24-3.24,3.24h-17.68
			c-1.79,0-3.24-1.45-3.24-3.24v-2.8C186.08,185.86,187.53,184.41,189.32,184.41z"/>
		<circle id="Options2-4" class="st2" cx="295.81" cy="10.16" r="2.23"/>
		<circle id="Options2-5" class="st2" cx="287.32" cy="10.2" r="2.23"/>
		<circle id="Options2-6" class="st2" cx="278.83" cy="10.24" r="2.23"/>
		<path class="st2" d="M231.2,13.76L231.2,13.76l-44.39-0.21c-1.69,0-3.06-1.37-3.06-3.06c0-1.69,1.37-3.05,3.06-3.06l0,0
			l44.41,0.21c1.69,0,3.06,1.37,3.06,3.06c0,1.69-1.37,3.05-3.06,3.06H231.2z"/>
		<path id="Card-4" class="st3" d="M188,111.28l105.67-0.11c2.55,0,4.61,2.06,4.61,4.61l0.08,75.59c0,2.55-2.06,4.61-4.61,4.61
			l-105.67,0.11c-2.55,0-4.61-2.06-4.61-4.61l-0.08-75.59C183.39,113.35,185.46,111.28,188,111.28z"/>
		<path class="st4" d="M189.35,191.05c-1.69-0.1-2.99-1.55-2.89-3.24c0.09-1.56,1.33-2.8,2.89-2.89h43.5l0,0
			c1.69-0.1,3.14,1.2,3.24,2.89s-1.2,3.14-2.89,3.24c-0.12,0.01-0.23,0.01-0.35,0H189.35L189.35,191.05z"/>
		
			<linearGradient id="SVGID_1_" gradientUnits="userSpaceOnUse" x1="-353.8353" y1="290.1131" x2="-240.2453" y2="248.3931" gradientTransform="matrix(1 0 0 -1 564 424.7643)">
			<stop  offset="0" style="stop-color:#AEC4D5"/>
			<stop  offset="1" style="stop-color:#7896AD"/>
		</linearGradient>
		<path class="st9" d="M298.29,114.44l0.08,65.22l-89.36,0.09h-25.53l-0.08-65.21c-0.01-1.81,1.46-3.28,3.27-3.29c0,0,0.01,0,0.01,0
			l108.33-0.12c1.81,0,3.28,1.47,3.28,3.28C298.29,114.42,298.29,114.43,298.29,114.44z"/>
		<path class="st10" d="M177.86,32.19c0.31-0.03,0.63-0.03,0.94,0l104.71,13c2.52,0.32,4.31,2.62,4,5.14l-9.29,74.9
			c-0.32,2.52-2.61,4.31-5.13,4l-95.15-11.8L177.86,32.19z"/>
	</g>
	<g id="card-5">
		
			<linearGradient id="Card-6_00000039837501359443602780000002334980681512691359_" gradientUnits="userSpaceOnUse" x1="-421.8964" y1="351.6464" x2="-206.8064" y2="349.4964" gradientTransform="matrix(1 0 0 -1 563.9988 424.7605)">
			<stop  offset="0" style="stop-color:#DEEBFF"/>
			<stop  offset="1" style="stop-color:#FFFFFF"/>
		</linearGradient>
		<path id="Card-6" style="fill:url(#Card-6_00000039837501359443602780000002334980681512691359_);" d="M160.42,22.97l103.96,18.11
			c2.5,0.44,4.18,2.82,3.74,5.32l-12.95,74.37c-0.44,2.5-2.82,4.18-5.32,3.74l-103.96-18.11c-2.5-0.44-4.18-2.82-3.74-5.32
			l12.95-74.37C155.54,24.21,157.92,22.54,160.42,22.97z"/>
		
			<linearGradient id="SVGID_00000144322047812061297870000002990475649325929870_" gradientUnits="userSpaceOnUse" x1="-401.3963" y1="378.8578" x2="-305.5914" y2="378.8578" gradientTransform="matrix(1 0 0 -1 564 424.7643)">
			<stop  offset="0" style="stop-color:#C1C7D0"/>
			<stop  offset="1" style="stop-color:#DFE1E5"/>
		</linearGradient>
		<path style="fill:url(#SVGID_00000144322047812061297870000002990475649325929870_);" d="M165.13,41.06
			c-1.63-0.45-2.59-2.13-2.14-3.76c0.39-1.42,1.73-2.36,3.2-2.24l89.67,15.59l0,0c1.69,0.13,2.95,1.6,2.82,3.28
			c-0.13,1.69-1.6,2.95-3.28,2.82c-0.2-0.02-0.39-0.05-0.58-0.1l-89.68-15.63V41.06z"/>
		
			<linearGradient id="SVGID_00000046339761419352634600000018399870350035920286_" gradientUnits="userSpaceOnUse" x1="-403.7363" y1="367.3184" x2="-323.7962" y2="367.3184" gradientTransform="matrix(1 0 0 -1 564 424.7643)">
			<stop  offset="0" style="stop-color:#C1C7D0"/>
			<stop  offset="1" style="stop-color:#DFE1E5"/>
		</linearGradient>
		<path style="fill:url(#SVGID_00000046339761419352634600000018399870350035920286_);" d="M162.81,54.07
			c-1.63-0.45-2.58-2.14-2.13-3.77c0.39-1.41,1.72-2.35,3.18-2.23l73.82,12.75l0,0c1.63,0.45,2.58,2.14,2.13,3.77
			c-0.39,1.41-1.72,2.35-3.18,2.23L162.81,54.07z"/>
		
			<linearGradient id="SVGID_00000043433472495431704640000006506771924237394333_" gradientUnits="userSpaceOnUse" x1="-406.0763" y1="352.5522" x2="-310.2753" y2="352.5522" gradientTransform="matrix(1 0 0 -1 564 424.7643)">
			<stop  offset="0" style="stop-color:#C1C7D0"/>
			<stop  offset="1" style="stop-color:#DFE1E5"/>
		</linearGradient>
		<path style="fill:url(#SVGID_00000043433472495431704640000006506771924237394333_);" d="M160.45,67.4
			c-1.63-0.45-2.58-2.14-2.13-3.77c0.39-1.41,1.72-2.35,3.18-2.23l89.68,15.52l0,0c1.69,0.13,2.95,1.6,2.82,3.28
			c-0.13,1.69-1.6,2.95-3.28,2.82c-0.2-0.02-0.39-0.05-0.58-0.1L160.45,67.4L160.45,67.4z"/>
		
			<linearGradient id="SVGID_00000124868939926552242160000016752871881750911659_" gradientUnits="userSpaceOnUse" x1="-408.4163" y1="339.2784" x2="-312.6063" y2="339.2784" gradientTransform="matrix(1 0 0 -1 564 424.7643)">
			<stop  offset="0" style="stop-color:#C1C7D0"/>
			<stop  offset="1" style="stop-color:#DFE1E5"/>
		</linearGradient>
		<path style="fill:url(#SVGID_00000124868939926552242160000016752871881750911659_);" d="M158.12,80.74
			c-1.63-0.45-2.58-2.14-2.13-3.77c0.39-1.41,1.72-2.35,3.18-2.23l89.64,15.49l0,0c1.63,0.45,2.58,2.14,2.13,3.77
			c-0.39,1.41-1.72,2.35-3.18,2.23l-89.68-15.52L158.12,80.74z"/>
		
			<linearGradient id="SVGID_00000022524147860952482260000013606159321793845914_" gradientUnits="userSpaceOnUse" x1="-410.7462" y1="328.3522" x2="-342.9954" y2="328.3522" gradientTransform="matrix(1 0 0 -1 564 424.7643)">
			<stop  offset="0" style="stop-color:#C1C7D0"/>
			<stop  offset="1" style="stop-color:#DFE1E5"/>
		</linearGradient>
		<path style="fill:url(#SVGID_00000022524147860952482260000013606159321793845914_);" d="M155.81,94.07
			c-1.63-0.45-2.58-2.14-2.13-3.77c0.39-1.41,1.72-2.35,3.18-2.23l61.63,10.58l0,0c1.69,0.13,2.95,1.6,2.82,3.28
			c-0.13,1.69-1.6,2.95-3.28,2.82c-0.2-0.02-0.39-0.05-0.58-0.1L155.81,94.07z"/>
	</g>
	<g id="list-3">
		<path id="BG-2" class="st1" d="M326.68,1.58l115.07-0.12c3.17,0,5.74,2.56,5.75,5.73l0.31,295.19c0,3.17-2.56,5.74-5.73,5.75
			L327,308.25c-3.17,0-5.74-2.56-5.75-5.73L320.94,7.32C320.94,4.15,323.51,1.58,326.68,1.58z"/>
		<g id="Add_Card-3">
			<path class="st2" d="M369.61,298.81c-1.69,0-3.06-1.37-3.06-3.06c0-1.69,1.37-3.06,3.06-3.06c0,0,0.01,0,0.01,0h29.52l0,0
				c1.69,0,3.06,1.37,3.06,3.06c0,1.69-1.37,3.05-3.06,3.06H369.61L369.61,298.81z"/>
		</g>
		<circle id="Options2-7" class="st2" cx="439" cy="10.12" r="2.23"/>
		<circle id="Options2-8" class="st2" cx="430.51" cy="10.16" r="2.23"/>
		<circle id="Options2-9" class="st2" cx="422.02" cy="10.2" r="2.23"/>
		<path class="st2" d="M374.39,13.72L374.39,13.72l-44.41-0.21c-1.69,0-3.06-1.37-3.06-3.06c0-1.69,1.37-3.05,3.06-3.06l0,0
			l44.41,0.21c1.69,0,3.06,1.37,3.06,3.06C377.45,12.35,376.08,13.72,374.39,13.72z"/>
		
			<linearGradient id="Card-7_00000155859570533443757730000018243504266873024671_" gradientUnits="userSpaceOnUse" x1="-231.1543" y1="288.3668" x2="-113.2143" y2="248.6568" gradientTransform="matrix(1 1.047197e-03 1.047197e-03 -1 563.3347 425.3691)">
			<stop  offset="0" style="stop-color:#FFFFFF"/>
			<stop  offset="0.33" style="stop-color:#FCFEFF"/>
			<stop  offset="0.53" style="stop-color:#F4F9FF"/>
			<stop  offset="0.7" style="stop-color:#E6F1FF"/>
			<stop  offset="0.84" style="stop-color:#D1E5FF"/>
			<stop  offset="0.98" style="stop-color:#B7D7FF"/>
			<stop  offset="1" style="stop-color:#B2D4FF"/>
		</linearGradient>
		<path id="Card-7" style="fill:url(#Card-7_00000155859570533443757730000018243504266873024671_);" d="M331.26,111.83h105.53
			c2.54,0,4.6,2.06,4.6,4.6v75.49c0,2.54-2.06,4.6-4.6,4.6H331.26c-2.54,0-4.6-2.06-4.6-4.6v-75.49
			C326.66,113.89,328.72,111.83,331.26,111.83z"/>
		
			<linearGradient id="SVGID_00000083047492690058779770000008428654972334272926_" gradientUnits="userSpaceOnUse" x1="-234.4301" y1="302.6784" x2="-137.3024" y2="302.6784" gradientTransform="matrix(1 0 0 -1 564 424.7643)">
			<stop  offset="0" style="stop-color:#DFE1E5"/>
			<stop  offset="1" style="stop-color:#C1C7D0"/>
		</linearGradient>
		<path style="fill:url(#SVGID_00000083047492690058779770000008428654972334272926_);" d="M332.63,125.19
			c-1.69,0-3.06-1.37-3.06-3.06c0-1.69,1.37-3.06,3.06-3.06c0,0,0.01,0,0.01,0l91-0.09l0,0c1.69,0,3.06,1.37,3.06,3.06
			c0,1.69-1.37,3.06-3.06,3.06c0,0-0.01,0-0.01,0L332.63,125.19z"/>
		
			<linearGradient id="SVGID_00000128446195003837069590000016579227363432130724_" gradientUnits="userSpaceOnUse" x1="-234.4824" y1="289.5134" x2="-153.4501" y2="289.5134" gradientTransform="matrix(1 0 0 -1 564 424.7643)">
			<stop  offset="0" style="stop-color:#DFE1E5"/>
			<stop  offset="1" style="stop-color:#C1C7D0"/>
		</linearGradient>
		<path style="fill:url(#SVGID_00000128446195003837069590000016579227363432130724_);" d="M332.57,138.4
			c-1.69,0-3.06-1.37-3.06-3.06c0-1.69,1.37-3.05,3.06-3.06l74.92-0.18l0,0c1.69,0,3.06,1.37,3.06,3.06c0,1.69-1.37,3.05-3.06,3.06
			L332.57,138.4L332.57,138.4z"/>
		
			<linearGradient id="SVGID_00000160191211788302595920000010782856184872819893_" gradientUnits="userSpaceOnUse" x1="-234.4901" y1="275.9784" x2="-137.3624" y2="275.9784" gradientTransform="matrix(1 0 0 -1 564 424.7643)">
			<stop  offset="0" style="stop-color:#DFE1E5"/>
			<stop  offset="1" style="stop-color:#C1C7D0"/>
		</linearGradient>
		<path style="fill:url(#SVGID_00000160191211788302595920000010782856184872819893_);" d="M332.57,151.94
			c-1.69,0-3.06-1.37-3.06-3.06c0-1.69,1.37-3.06,3.06-3.06c0,0,0.01,0,0.01,0l91-0.19l0,0c1.69,0,3.06,1.37,3.06,3.06
			c0,1.69-1.37,3.06-3.06,3.06c0,0-0.01,0-0.01,0L332.57,151.94z"/>
		
			<linearGradient id="Card-8_00000007423779140178854930000009605943045398436002_" gradientUnits="userSpaceOnUse" x1="-237.0986" y1="181.6329" x2="-121.7692" y2="181.6329" gradientTransform="matrix(1 0 0 -1 563.9995 424.7639)">
			<stop  offset="0" style="stop-color:#FFFFFF"/>
			<stop  offset="0.33" style="stop-color:#FCFEFF"/>
			<stop  offset="0.53" style="stop-color:#F4F9FF"/>
			<stop  offset="0.7" style="stop-color:#E6F1FF"/>
			<stop  offset="0.84" style="stop-color:#D1E5FF"/>
			<stop  offset="0.98" style="stop-color:#B7D7FF"/>
			<stop  offset="1" style="stop-color:#B2D4FF"/>
		</linearGradient>
		<path id="Card-8" style="fill:url(#Card-8_00000007423779140178854930000009605943045398436002_);" d="M331.52,200.65l106.01-0.11
			c2.55,0,4.62,2.06,4.62,4.62l0.08,75.83c0,2.55-2.06,4.62-4.62,4.62l-106.01,0.11c-2.55,0-4.62-2.06-4.62-4.62l-0.08-75.83
			C326.9,202.72,328.96,200.65,331.52,200.65z"/>
		<path class="st4" d="M332.38,279.65c-1.7,0.1-3.15-1.2-3.25-2.9c-0.1-1.7,1.2-3.15,2.9-3.25c0.12-0.01,0.23-0.01,0.35,0h43.64l0,0
			c1.7,0,3.07,1.37,3.07,3.07s-1.37,3.07-3.07,3.07l-43.64,0.05V279.65z"/>
		
			<linearGradient id="SVGID_00000007413654194812663480000011650995473785872022_" gradientUnits="userSpaceOnUse" x1="-179.8848" y1="158.3533" x2="-178.3748" y2="256.6733" gradientTransform="matrix(1 0 0 -1 564 424.7643)">
			<stop  offset="0" style="stop-color:#B3BCD9"/>
			<stop  offset="1" style="stop-color:#79A6CF"/>
		</linearGradient>
		<path style="fill:url(#SVGID_00000007413654194812663480000011650995473785872022_);" d="M442.16,203.81l0.07,65.42l-89.64,0.09
			h-25.61l-0.07-65.41c-0.01-1.82,1.46-3.29,3.28-3.3c0,0,0.01,0,0.01,0l108.66-0.12c1.82,0,3.3,1.48,3.3,3.3
			C442.16,203.8,442.16,203.8,442.16,203.81z"/>
		<path id="Card-9" class="st3" d="M330.93,21.98l106.01-0.11c2.55,0,4.62,2.06,4.62,4.62l0.08,75.83c0,2.55-2.06,4.62-4.62,4.62
			l-106.01,0.11c-2.55,0-4.62-2.06-4.62-4.62l-0.08-75.83C326.31,24.06,328.38,21.98,330.93,21.98z"/>
		<path class="st4" d="M331.81,100.99c-1.7,0-3.07-1.38-3.07-3.07c0-1.69,1.37-3.07,3.07-3.07h43.64l0,0c1.7,0.1,3,1.55,2.9,3.25
			c-0.09,1.56-1.34,2.81-2.9,2.9h-43.63L331.81,100.99z"/>
		
			<linearGradient id="SVGID_00000168089085968493582110000010856376555582597019_" gradientUnits="userSpaceOnUse" x1="-180.4878" y1="337.0234" x2="-178.9678" y2="435.3334" gradientTransform="matrix(1 0 0 -1 564 424.7643)">
			<stop  offset="0" style="stop-color:#7B8AB8"/>
			<stop  offset="1" style="stop-color:#FFC2D1"/>
		</linearGradient>
		<path style="fill:url(#SVGID_00000168089085968493582110000010856376555582597019_);" d="M441.56,25.14l0.07,65.42L352,90.66
			h-25.62l-0.07-65.41c-0.01-1.82,1.46-3.29,3.28-3.3c0,0,0.01,0,0.01,0l108.66-0.12c1.82-0.01,3.29,1.46,3.3,3.28
			C441.56,25.12,441.56,25.13,441.56,25.14z"/>
		<path class="st24" d="M384.04,55.74l-8.38,22.21c-5.87-2.34-10.63-6.82-13.32-12.53l21.64-9.77L384.04,55.74z"/>
		<path class="st25" d="M384.04,32.1v23.64l-0.06-0.05l-21.64,9.73c-1.38-3.04-2.06-6.34-2-9.68c0-0.41,0-0.83,0-1.24
			c0.2-5.83,2.65-11.36,6.84-15.42c0.05,0,0.08-0.06,0.08-0.09l0,0c4.37-4.5,10.4-6.99,16.67-6.89H384.04z"/>
		
			<linearGradient id="SVGID_00000158737734673386404410000002546515449865856657_" gradientUnits="userSpaceOnUse" x1="-172.3687" y1="392.6642" x2="-172.3687" y2="345.3309" gradientTransform="matrix(1 0 0 -1 564 424.7643)">
			<stop  offset="0" style="stop-color:#FFFFFF"/>
			<stop  offset="1" style="stop-color:#FFDDCE"/>
		</linearGradient>
		<path style="fill-rule:evenodd;clip-rule:evenodd;fill:url(#SVGID_00000158737734673386404410000002546515449865856657_);" d="
			M375.66,77.95l8.38-22.21V32.1c2.87-0.02,5.72,0.46,8.42,1.44c3.11,1.21,5.92,3.07,8.25,5.45c4.26,4.08,6.73,9.68,6.88,15.58
			c0,0.39,0,0.78,0,1.17c0.13,6.28-2.36,12.33-6.87,16.69l0,0c-4.36,4.56-10.42,7.09-16.73,7
			C381.15,79.42,378.34,78.92,375.66,77.95z"/>
	</g>
	<g id="Sasquatch">
		
			<linearGradient id="arm_00000098910825461803710720000003938177107148822446_" gradientUnits="userSpaceOnUse" x1="-508.6963" y1="206.2529" x2="-283.5063" y2="206.2529" gradientTransform="matrix(1 0 0 -1 564 424.7643)">
			<stop  offset="0" style="stop-color:#FE5746"/>
			<stop  offset="1" style="stop-color:#EE9AEB"/>
		</linearGradient>
		<path id="arm" style="fill:url(#arm_00000098910825461803710720000003938177107148822446_);" d="M241.81,215.21l-0.34,1.8l0,0
			c-0.73,3.19-2.84,8.16-7.76,15.65c0,0-4.44,7.58-15.22,6.05c-1.48-0.22-2.99,0.14-4.22,1c-4.63,3.25-17.15,11-32.94,12.05
			c-2.66,0.18-5.34,0.16-8-0.06c-3.57-0.31-7.1-0.99-10.52-2.05c-2.1-0.63-4.16-1.4-6.17-2.29l2.53-21.07l1.88-15.59
			c0,0,18.16,5.48,27.14,5.11c6.7-0.34,13.18-2.43,18.82-6.06c6.44-4.23,7.79-9.35,9.15-16.54c1.06-5.38,6.26-8.91,11.65-7.9
			l3.24,0.61c1.01,0.1,2.02,0.29,3,0.56l3.5,0.66c2.9,0.55,4.8,3.34,4.26,6.24l-1.31,7l-2.06,10.92l0.8,0.15
			C240.98,211.79,242.13,213.47,241.81,215.21z"/>
		<path id="shadow" class="st28" d="M181.3,251.75c-2.66,0.18-5.34,0.16-8-0.06c-3.56-0.31-7.08-0.99-10.49-2.04
			c-0.2-3.55-1.41-24.74-1.49-26.18C161.92,233.49,169.64,250.03,181.3,251.75z"/>
		
			<linearGradient id="body_00000139995246523660341600000008814829166657866662_" gradientUnits="userSpaceOnUse" x1="-436.3173" y1="304.833" x2="-440.8073" y2="93.113" gradientTransform="matrix(1 0 0 -1 564 424.7643)">
			<stop  offset="0" style="stop-color:#FE5746"/>
			<stop  offset="1" style="stop-color:#EE9AEB"/>
		</linearGradient>
		<path id="body" style="fill:url(#body_00000139995246523660341600000008814829166657866662_);" d="M166.41,310.65
			c-2.69,22.22-6.74,47.14-6.74,47.14l-2.69,10.1l-28.29-4v-0.24c-0.06-2.96-0.12-5.92-0.19-8.88l-0.3-14.34l-0.12-5.6
			c0-0.4,0-0.81,0-1.22c0.01-0.26,0.04-0.52,0.1-0.77c0.06-0.23,0.09-0.46,0.1-0.69c-0.24,0.01-0.48,0.03-0.72,0.08l-0.74,0.12
			c-0.48,0.08-0.96,0.19-1.43,0.34c-0.99,0.23-1.84,0.86-2.36,1.73c-0.38,0.83-0.66,1.7-0.81,2.6c-0.33,1.4-0.58,2.81-0.8,4.24
			c-1.01,7.24-1.28,14.57-0.83,21.87l-35.69-2c0,0-0.66-12.22-1.09-24.35c0-0.32,0-0.64,0-0.95c-0.12-3.34-0.22-6.64-0.28-9.65
			c0-0.34,0-0.67,0-1c-0.09-4.58-0.08-8.4,0.08-10.52l0.67-121.9c0,0-1.34-36.37,0-47.14s10.21-19.39,19.7-23.94
			c3.47-1.66,7.19-2.77,11-3.29c0.13,0,1.1-0.82,1.22-0.9c1.11-0.77,2.27-1.47,3.47-2.11c3.66-1.86,7.65-2.97,11.75-3.27
			c1.25-0.1,10.83-0.67,10.83,1.18c0,0.42-0.95,0.64-1.23,0.74c-1,0.32-2.07,0.54-3.11,0.77c-2.6,0.55-5.24,1-7.82,1.71
			c-0.46,0.13-0.92,0.24-1.37,0.4c-0.39,0.11-0.73,0.33-1,0.63c0.35-0.12,0.71-0.2,1.08-0.22c0.42,0,0.84,0,1.26-0.1
			s0.89-0.08,1.33-0.1c2.08-0.12,4.16-0.16,6.24-0.16s4.07,0,6.1,0.21c1.95,0.15,3.87,0.59,5.69,1.29c2.08,0.85,0.26,1.35-0.73,1.48
			c-1.82,0.18-3.65,0.27-5.48,0.25c-1.35,0-2.7,0-4,0.05s-2.57,0-3.85,0.08c-0.73,0-1.46,0.11-2.17,0.3c0.49,0.28,1,0.51,1.53,0.69
			c0.51,0.24,1,0.49,1.52,0.75c1,0.53,2,1.1,3,1.71l0.16,0.09c0.78,0.49,1.55,1,2.3,1.55c14.14,10.1,15.49,27.61,16.16,35
			s5.18,51.24,5.18,51.24S169.1,288.38,166.41,310.65z"/>
		<path id="shadow-2" class="st28" d="M58.1,308.56c-3.96,4.06-5.32,10-3.53,15.38c0.71,2.14,2.09,3.99,3.94,5.28
			c1.88,1.32,4.13,2.01,6.43,2c-0.68-0.36-1.15-1.01-1.27-1.76c-0.52-2.24-0.21-4.52-0.24-6.79s-0.87-3.84-1.41-5.92
			c-0.89-3.44-1.3-6.99-1.21-10.54C59.82,306.89,58.91,307.68,58.1,308.56z"/>
		<path id="shadow-3" class="st28" d="M93.24,328.47c-2.56,3.13-5.79,5.64-9.45,7.35c-0.12-3.34-0.22-6.64-0.28-9.65
			c0-0.34,0-0.67,0-1c6.75-3.54,8.81-10.78,8.16-17.26c-0.67-6.73-4.71-16.16-6.06-26.93c-0.33-2.75-0.37-5.53-0.09-8.28
			c0.25-2.44,0.7-4.85,1.37-7.21c0.3-1.36,0.79-2.67,1.45-3.89c-0.08,0.7-0.15,1.39-0.16,2.09c-0.23,5.8,0.19,11.6,1.25,17.31
			c1.28,5.65,2.91,11.21,4.88,16.65C97.81,307.71,100.73,319.38,93.24,328.47z"/>
		
			<linearGradient id="arm-2_00000127027771963538747610000003596277611426356885_" gradientUnits="userSpaceOnUse" x1="-403.7" y1="248.9866" x2="-513.81" y2="122.5666" gradientTransform="matrix(1 0 0 -1 564 424.7643)">
			<stop  offset="0" style="stop-color:#FE5746"/>
			<stop  offset="1" style="stop-color:#EE9AEB"/>
		</linearGradient>
		<path id="arm-2" style="fill:url(#arm-2_00000127027771963538747610000003596277611426356885_);" d="M84.07,198.98
			c0,0,1.52,20.67-11.26,28.79s-20.88,22.9-22.23,35c-1.35,12.1,3.37,28.29,5.39,35.7s5.39,21.55,5.39,21.55s-3.37,0.67-2.7,6.06
			s3.37,5.39,8.76,5.39c0,0,10.77-0.68,18.18-6.06s6.74-18.86,4.72-24.25c0,0-10.11-22.23-2-40.41L84.07,198.98z"/>
		<path id="belly" class="st31" d="M123.98,225.08h22.9c7.44,0,13.47,6.03,13.47,13.47v62.63c0,7.44-6.03,13.47-13.47,13.47h-22.9
			c-7.44,0-13.47-6.03-13.47-13.47v-62.63C110.51,231.11,116.54,225.08,123.98,225.08z"/>
		<g id="smile">
			<ellipse class="st31" cx="133.41" cy="191.74" rx="20.88" ry="11.79"/>
			<path class="st32" d="M119.19,188.7c9.09,4.13,19.54,4.01,28.54-0.31"/>
		</g>
		<g id="boots">
			<rect x="127.35" y="389.41" class="st5" width="59.27" height="4.04"/>
			<rect x="73.47" y="389.41" class="st5" width="48.49" height="4.04"/>
			<path class="st33" d="M120.5,360.22l-12.69,0.23l-0.07-0.06c-1.38-4.39-5.46-7.37-10.06-7.34h-7.21c-3.16-0.04-5.76,2.5-5.8,5.66
				c0,0.11,0,0.22,0.01,0.34l0.13,2.49c-1.52,6.11-8,17.84-10,21.11c-1.21,2.03-1.68,4.41-1.35,6.74h48.49v-8.09
				C121.96,377.96,120.5,360.22,120.5,360.22z"/>
			<path class="st33" d="M170.45,372.57c-2.83-0.57-5.11-2.84-7.06-4.83c-2.47-2.51-3.21-6-3.32-9.52v-2.19c0-0.33,0-0.65,0-1h-4.78
				c-3.48,0-6.6,2.14-7.85,5.39h-18.82c-1.26,9.61-1.69,19.31-1.27,29h59.26C185.94,374.59,173.81,373.24,170.45,372.57z"/>
			<circle class="st34" cx="140.82" cy="375.26" r="6.73"/>
			<ellipse class="st34" cx="112.53" cy="375.94" rx="3.37" ry="6.73"/>
		</g>
		<g id="eyes">
			<path class="st3" d="M120.61,163.12L120.61,163.12c1.5,0,2.7,1.2,2.7,2.69v5.4c0,1.49-1.2,2.69-2.69,2.69h-0.01
				c-1.49,0-2.69-1.2-2.69-2.69v-5.4C117.92,164.33,119.13,163.12,120.61,163.12z"/>
			<path class="st3" d="M147.55,163.12L147.55,163.12c1.5,0,2.7,1.2,2.7,2.69v5.4c0,1.49-1.2,2.69-2.69,2.69h-0.01
				c-1.49,0-2.69-1.2-2.69-2.69v-5.4C144.86,164.33,146.07,163.12,147.55,163.12z"/>
		</g>
		<path id="shadow-4" class="st28" d="M146.21,328.12c0,0-14.22,8.08-17.89,18.18l-0.3-14.14
			C128.02,332.16,140.14,331.49,146.21,328.12z"/>
		<g id="detail">
			<path class="st35" d="M230.64,221.65c1.15-3.25,3.16-6.13,5.82-8.33c1-0.84-0.44-2.26-1.43-1.43c-2.91,2.44-5.11,5.63-6.34,9.22
				c-0.43,1.23,1.52,1.76,2,0.54L230.64,221.65z"/>
		</g>
	</g>
	<g id="robot">
		<rect id="neck" x="439.53" y="228.62" class="st36" width="25.22" height="7.08"/>
		<g id="arm-3">
			<g id="arm_l">
				<path class="st37" d="M398.97,302.65c2.43,1.14,5.28,0.91,7.5-0.61c23.32-16,25.86-49.78,26-51.21
					c0.15-4.18-3.12-7.69-7.29-7.84c-4-0.14-7.42,2.85-7.81,6.84c0,0.44-2.25,28-19.42,39.77c-3.44,2.38-4.3,7.09-1.93,10.53
					C396.77,301.21,397.79,302.08,398.97,302.65z"/>
			</g>
			<path class="st38" d="M396.93,291.68l5.09,9.82c1.33,2.56,0.33,5.72-2.23,7.05l-9.82,5.09c-2.56,1.33-5.72,0.33-7.05-2.23
				l-5.09-9.82c-1.33-2.56-0.33-5.72,2.23-7.05l9.82-5.09C392.44,288.12,395.6,289.12,396.93,291.68z"/>
		</g>
		<g id="head">
			
				<linearGradient id="SVGID_00000150802372793082227010000004846086954201660800_" gradientUnits="userSpaceOnUse" x1="-5748.3081" y1="186.6033" x2="-5748.3081" y2="238.0334" gradientTransform="matrix(-1 0 0 -1 -5289.0342 424.7643)">
				<stop  offset="0" style="stop-color:#77A6FF"/>
				<stop  offset="1" style="stop-color:#E5CDFF"/>
			</linearGradient>
			<path style="fill:url(#SVGID_00000150802372793082227010000004846086954201660800_);" d="M471.92,228.83h-25.3
				c-1.74,0-3.15-1.41-3.15-3.15v-46.36c0-1.74,1.41-3.15,3.15-3.15h25.3c1.74,0,3.15,1.41,3.15,3.15v46.36
				C475.07,227.42,473.66,228.83,471.92,228.83z"/>
			
				<linearGradient id="SVGID_00000163047433679653161400000012088501898951762570_" gradientUnits="userSpaceOnUse" x1="-118.9763" y1="57.5134" x2="-118.9763" y2="267.8934" gradientTransform="matrix(1 0 0 -1 564 424.7643)">
				<stop  offset="0" style="stop-color:#589DB5"/>
				<stop  offset="0.06" style="stop-color:#64A4BA"/>
				<stop  offset="0.28" style="stop-color:#94BDCD"/>
				<stop  offset="0.5" style="stop-color:#BAD2DC"/>
				<stop  offset="0.69" style="stop-color:#D5E0E7"/>
				<stop  offset="0.87" style="stop-color:#E5E9EE"/>
				<stop  offset="1" style="stop-color:#EBECF0"/>
			</linearGradient>
			<path style="fill:url(#SVGID_00000163047433679653161400000012088501898951762570_);" d="M457.66,228.91h-25.28
				c-1.75,0-3.16-1.41-3.16-3.16v-46.43c0-1.75,1.41-3.16,3.16-3.16h25.28c1.75,0,3.16,1.41,3.16,3.16v46.43
				C460.82,227.5,459.41,228.91,457.66,228.91z"/>
		</g>
		<g id="glasses">
			<path class="st41" d="M464.7,195.51h-40.93c-1.52,0-2.76-1.24-2.76-2.76v-0.01c0-1.52,1.24-2.76,2.76-2.76h40.93
				c1.52,0,2.76,1.24,2.76,2.76v0.01C467.46,194.28,466.23,195.51,464.7,195.51z"/>
			<path class="st41" d="M450.26,207.42h8.33c1.58,0.01,2.93-1.12,3.22-2.67l2-11.1h-18.79l2,11.14
				C447.33,206.33,448.69,207.44,450.26,207.42z"/>
			<path class="st41" d="M429.72,207.42h8.33c1.57,0,2.92-1.12,3.2-2.67l2-11.14h-18.78l2,11.14
				C426.76,206.32,428.13,207.45,429.72,207.42z"/>
			<g>
				<defs>
					<path id="SVGID_00000176724409466915215530000015284023407827189672_" d="M430.24,204.83h7.29c0.75,0,1.39-0.55,1.5-1.29
						l1.41-9.42h-13.12l1.42,9.42C428.86,204.28,429.49,204.83,430.24,204.83z"/>
				</defs>
				<clipPath id="SVGID_00000031928202904845137040000013756710881536579236_">
					<use xlink:href="#SVGID_00000176724409466915215530000015284023407827189672_"  style="overflow:visible;"/>
				</clipPath>
				<g style="clip-path:url(#SVGID_00000031928202904845137040000013756710881536579236_);">
					<path class="st43" d="M430.24,204.83h7.29c0.75,0,1.39-0.55,1.5-1.29l1.41-9.42h-13.12l1.42,9.42
						C428.86,204.28,429.49,204.83,430.24,204.83z"/>
					
						<rect x="431.82" y="189.54" transform="matrix(0.6309 -0.7758 0.7758 0.6309 6.248 410.117)" class="st44" width="4.75" height="17.9"/>
				</g>
			</g>
			<g>
				<defs>
					<path id="SVGID_00000084516109057367354760000006612503465638367934_" d="M450.81,204.83h7.29c0.75,0,1.39-0.55,1.5-1.29
						l1.42-9.42h-13.15l1.42,9.42C449.4,204.29,450.05,204.84,450.81,204.83z"/>
				</defs>
				<clipPath id="SVGID_00000165230523429193130000000005921143771173503673_">
					<use xlink:href="#SVGID_00000084516109057367354760000006612503465638367934_"  style="overflow:visible;"/>
				</clipPath>
				<g style="clip-path:url(#SVGID_00000165230523429193130000000005921143771173503673_);">
					<path class="st43" d="M450.81,204.83h7.29c0.75,0,1.39-0.55,1.5-1.29l1.42-9.42h-13.15l1.42,9.42
						C449.4,204.29,450.05,204.84,450.81,204.83z"/>
					
						<rect x="452.08" y="189.53" transform="matrix(0.6309 -0.7758 0.7758 0.6309 13.73 425.8272)" class="st44" width="4.75" height="17.9"/>
				</g>
			</g>
		</g>
		<path id="leg" class="st37" d="M445.04,378.53l-14.14,3.44c-6.01-25.41-6.01-51.88,0-77.29l14.14,3.44
			C439.56,331.27,439.56,355.38,445.04,378.53z"/>
		<g id="boot">
			<g>
				<defs>
					<path id="SVGID_00000062878886672895504130000012548963483958990775_" d="M443.38,371.31c0.12,0,0.22,0.08,0.25,0.19
						c0.37,1.31,2.54,9,2.64,10.47s0,11.68,0,11.68h-38.74c0,0-1.91-10.11,8.42-11.68s11.84-6,12.1-9.5c0.16-1.81,0.16-3.62,0-5.43
						c0,0,4.41-1,5.64,1c0.37,0.6,0.69,1.15,0.95,1.62c0.64,1.14,1.85,1.83,3.16,1.8L443.38,371.31z"/>
				</defs>
				<clipPath id="SVGID_00000080920525475317451250000009381234038901378188_">
					<use xlink:href="#SVGID_00000062878886672895504130000012548963483958990775_"  style="overflow:visible;"/>
				</clipPath>
				<g style="clip-path:url(#SVGID_00000080920525475317451250000009381234038901378188_);">
					<path class="st1" d="M443.58,371.3c0,0,2.58,9.1,2.69,10.67s0,11.68,0,11.68h-38.74c0,0-1.91-10.11,8.42-11.68
						s11.84-6,12.1-9.5c0.16-1.81,0.16-3.62,0-5.43c0,0,4.41-1,5.64,1c0.37,0.6,0.69,1.14,0.95,1.62c0.64,1.14,1.85,1.83,3.16,1.8
						L443.58,371.3z"/>
					
						<linearGradient id="SVGID_00000024709374432360254870000002327691025417891511_" gradientUnits="userSpaceOnUse" x1="-5735.3584" y1="33.0784" x2="-5696.4282" y2="33.0784" gradientTransform="matrix(-1 0 0 -1 -5289.0347 424.7643)">
						<stop  offset="0" style="stop-color:#77A6FF"/>
						<stop  offset="1" style="stop-color:#E5CDFF"/>
					</linearGradient>
					
						<rect x="407.39" y="389.72" style="fill:url(#SVGID_00000024709374432360254870000002327691025417891511_);" width="38.93" height="3.93"/>
				</g>
			</g>
			<circle class="st48" cx="439.34" cy="383.17" r="3.74"/>
		</g>
		<path id="leg-2" class="st37" d="M478.16,378.53l-14.13,3.44c-6.01-25.41-6.01-51.88,0-77.29l14.13,3.44
			C472.68,331.27,472.68,355.38,478.16,378.53z"/>
		<g id="boot-2">
			<path class="st2" d="M476.5,371.31c0.12,0,0.22,0.08,0.26,0.19c0.37,1.31,2.53,9,2.64,10.47s0,11.68,0,11.68h-38.74
				c0,0-1.91-10.11,8.42-11.68s11.84-6,12.1-9.5c0.16-1.81,0.16-3.62,0-5.43c0,0,4.4-1,5.64,1c0.37,0.6,0.68,1.15,0.95,1.62
				c0.63,1.14,1.85,1.83,3.15,1.8L476.5,371.31z"/>
			<g>
				<defs>
					<path id="SVGID_00000173123826748115379160000006744304120224916615_" d="M476.5,371.31c0.12,0,0.22,0.08,0.26,0.19
						c0.37,1.31,2.53,9,2.64,10.47s0,11.68,0,11.68h-38.74c0,0-1.91-10.11,8.42-11.68s11.84-6,12.1-9.5c0.16-1.81,0.16-3.62,0-5.43
						c0,0,4.4-1,5.64,1c0.37,0.6,0.68,1.15,0.95,1.62c0.63,1.14,1.85,1.83,3.15,1.8L476.5,371.31z"/>
				</defs>
				<clipPath id="SVGID_00000029026714686030306930000007296693031109438083_">
					<use xlink:href="#SVGID_00000173123826748115379160000006744304120224916615_"  style="overflow:visible;"/>
				</clipPath>
				<g style="clip-path:url(#SVGID_00000029026714686030306930000007296693031109438083_);">
					<path class="st50" d="M476.7,371.3c0,0,2.58,9.1,2.7,10.67s0,11.68,0,11.68h-38.74c0,0-1.91-10.11,8.42-11.68s11.84-6,12.1-9.5
						c0.16-1.81,0.16-3.62,0-5.43c0,0,4.4-1,5.64,1c0.37,0.6,0.68,1.14,0.95,1.62c0.63,1.14,1.85,1.83,3.15,1.8L476.7,371.3z"/>
					
						<linearGradient id="SVGID_00000046316108255823092450000003037845815105123472_" gradientUnits="userSpaceOnUse" x1="-5768.4883" y1="33.0784" x2="-5729.5581" y2="33.0784" gradientTransform="matrix(-1 0 0 -1 -5289.0347 424.7643)">
						<stop  offset="0" style="stop-color:#77A6FF"/>
						<stop  offset="1" style="stop-color:#E5CDFF"/>
					</linearGradient>
					
						<rect x="440.52" y="389.72" style="fill:url(#SVGID_00000046316108255823092450000003037845815105123472_);" width="38.93" height="3.93"/>
				</g>
			</g>
			<circle class="st48" cx="472.47" cy="383.17" r="3.74"/>
		</g>
		<g id="torso">
			
				<linearGradient id="SVGID_00000000191018538881374360000013606958553159493521_" gradientUnits="userSpaceOnUse" x1="-5752.4985" y1="101.6834" x2="-5752.4985" y2="173.7634" gradientTransform="matrix(-1 0 0 -1 -5292.3047 448.1142)">
				<stop  offset="0" style="stop-color:#77A6FF"/>
				<stop  offset="1" style="stop-color:#E5CDFF"/>
			</linearGradient>
			<path style="fill:url(#SVGID_00000000191018538881374360000013606958553159493521_);" d="M480.89,317.18h-41.4
				c-3.35,0-6.06-2.71-6.06-6.06v-67.69c0-3.35,2.71-6.06,6.06-6.06h41.4c3.35,0,6.06,2.71,6.06,6.06v67.69
				C486.95,314.47,484.24,317.18,480.89,317.18z"/>
			
				<linearGradient id="SVGID_00000091010933324267877180000013521077471117487777_" gradientUnits="userSpaceOnUse" x1="-121.5843" y1="41.2634" x2="-121.5843" y2="176.4733" gradientTransform="matrix(1 0 0 -1 564.0542 424.7103)">
				<stop  offset="0" style="stop-color:#589DB5"/>
				<stop  offset="0.06" style="stop-color:#64A4BA"/>
				<stop  offset="0.28" style="stop-color:#94BDCD"/>
				<stop  offset="0.5" style="stop-color:#BAD2DC"/>
				<stop  offset="0.69" style="stop-color:#D5E0E7"/>
				<stop  offset="0.87" style="stop-color:#E5E9EE"/>
				<stop  offset="1" style="stop-color:#EBECF0"/>
			</linearGradient>
			<path style="fill:url(#SVGID_00000091010933324267877180000013521077471117487777_);" d="M462.99,315.25l-41.38-0.17
				c-3.35-0.01-6.06-2.74-6.04-6.1l0.28-67.82c0.01-3.35,2.74-6.06,6.1-6.04l41.38,0.17c3.35,0.01,6.06,2.74,6.04,6.1l-0.28,67.82
				C469.07,312.56,466.34,315.26,462.99,315.25z"/>
		</g>
		<g id="details" class="st54">
			<line class="st55" x1="433.19" y1="251.2" x2="433.19" y2="266.58"/>
			<line class="st55" x1="428.42" y1="251.2" x2="428.42" y2="266.58"/>
			<line class="st55" x1="423.65" y1="251.2" x2="423.65" y2="266.58"/>
			<circle class="st56" cx="439.15" cy="251.74" r="1.63"/>
			<circle class="st57" cx="439.15" cy="257.59" r="1.63"/>
		</g>
		<g id="arm_l-2">
			<path class="st37" d="M502.44,305.48c2.5-1,4.27-3.24,4.67-5.9c4.18-28-18.83-52.84-19.82-53.89c-3.07-2.84-7.86-2.65-10.7,0.42
				c-2.57,2.77-2.69,7.01-0.3,9.93c0.3,0.32,19,20.71,15.89,41.3c-0.63,4.12,2.2,7.97,6.32,8.61c1.34,0.21,2.72,0.04,3.98-0.47
				H502.44z"/>
		</g>
		<path id="hand" class="st38" d="M493.12,299.51l10.66,2.96c2.78,0.77,4.41,3.65,3.64,6.44l-2.96,10.66
			c-0.77,2.78-3.65,4.41-6.44,3.64l-10.66-2.96c-2.78-0.77-4.41-3.65-3.64-6.44l2.96-10.66
			C487.46,300.37,490.34,298.74,493.12,299.51z"/>
	</g>
	<g id="girl">
		
			<rect id="leg-3" x="328.3" y="247.87" transform="matrix(0.96 -0.28 0.28 0.96 -57.4538 103.6113)" class="st58" width="11.23" height="10.05"/>
		<path id="hand-2" class="st59" d="M269.86,79.85c-0.28-1.72-0.3-3.47-0.05-5.2c0.25-1.79,0.22-3.6-0.1-5.38c-0.52-2-1.12-4-1.67-6
			c-0.24-0.88-0.63-4.34-1.82-4.53c-0.33-0.05-0.6,0.24-0.77,0.53c-0.75,1.26-0.32,2.23-0.17,3.55c0.26,2.18,0.39,4.37,0.41,6.57
			c0,1.35,0.26,3.18-1,4l-1.19-3.84c-0.22-0.74-1.01-1.16-1.75-0.93c-0.65,0.2-1.06,0.83-0.98,1.5l0.35,3.2
			c0.27,2.46,0.37,6.1,2.35,7.9c0.61,0.88,1.06,1.87,1.33,2.91l5.38-2.19L269.86,79.85z"/>
		<path id="hand-3" class="st59" d="M253.39,126c-1.73-0.31-3.49-0.36-5.23-0.13c-1.79,0.23-3.6,0.17-5.37-0.17
			c-2-0.54-4-1.16-5.94-1.73c-0.87-0.25-4.33-0.69-4.5-1.88c0-0.32,0.25-0.6,0.53-0.76c1.27-0.73,2.24-0.3,3.56-0.13
			c2.18,0.28,4.37,0.44,6.56,0.49c1.36,0,3.18,0.29,4-1l-3.83-1.23c-0.73-0.24-1.13-1.03-0.89-1.77c0.21-0.63,0.83-1.03,1.49-0.95
			l3.2,0.38c2.45,0.3,6.09,0.44,7.86,2.44c0.88,0.62,1.86,1.08,2.9,1.36l-2.25,5.36L253.39,126z"/>
		<g id="arm-4">
			<g>
				<defs>
					<path id="SVGID_00000058576013060182752730000009305810912614046392_" d="M319.48,105.38c-7.87,4.13-16.08,7.59-24.54,10.33
						c-4,1.19-6.63,3.1-10.43,1.24c-1.9-1.05-3.59-2.43-5-4.08c-6.14-6.64-14.38-23.7-16.23-27.62c-0.25-0.46-0.1-1.04,0.35-1.32
						l6.71-4.7c0.48-0.33,1.14-0.22,1.48,0.26c1.38,1.95,5.07,7.17,10.29,14.79c1.28,1.91,2.65,3.75,4.11,5.52
						c0.83,1.03,1.74,1.99,2.73,2.87c0.84,0.7,2.02,0.83,3,0.34c11.85-6.15,19.54-10.86,22.79-12.92c0.12-0.08,0.24-0.16,0.37-0.23
						C317.36,94.78,318.84,100.01,319.48,105.38z"/>
				</defs>
				<clipPath id="SVGID_00000085949721983944890870000002803948526400862094_">
					<use xlink:href="#SVGID_00000058576013060182752730000009305810912614046392_"  style="overflow:visible;"/>
				</clipPath>
				<g style="clip-path:url(#SVGID_00000085949721983944890870000002803948526400862094_);">
					<path class="st61" d="M319.48,105.38c-7.87,4.13-16.08,7.59-24.54,10.33c-4,1.19-6.63,3.1-10.43,1.24
						c-1.9-1.05-3.59-2.43-5-4.08c-6.14-6.64-14.38-23.7-16.23-27.62c-0.25-0.46-0.1-1.04,0.35-1.32l6.71-4.7
						c0.48-0.33,1.14-0.22,1.48,0.26c1.38,1.95,5.07,7.17,10.29,14.79c1.28,1.91,2.65,3.75,4.11,5.52c0.83,1.03,1.74,1.99,2.73,2.87
						c0.84,0.7,2.02,0.83,3,0.34c11.85-6.15,19.54-10.86,22.79-12.92c0.12-0.08,0.24-0.16,0.37-0.23
						C317.36,94.78,318.84,100.01,319.48,105.38z"/>
					<path class="st62" d="M276.61,115.65c1.03,1.33,2.22,2.53,3.55,3.57c1.53,1.07,3.18,1.97,4.91,2.69
						c1.11,0.49,2.62,1.14,3.84,0.54c2.08-1,2.11-3.65,0.79-5.25c-0.95-0.96-2.14-1.65-3.44-2c-1.36-0.46-2.59-1.22-3.63-2.21
						c-0.94-1.07-2.06-1.98-3.31-2.67c-1.66-0.74-4.09-0.32-4.27,1.82C275.13,113.46,275.68,114.71,276.61,115.65z"/>
				</g>
			</g>
		</g>
		<g id="foot">
			
				<rect x="287.63" y="250.92" transform="matrix(0.9997 -0.0232 0.0232 0.9997 -5.8617 6.8754)" class="st58" width="11.23" height="10.05"/>
			<g id="boot_b">
				<g>
					<defs>
						<path id="SVGID_00000065058794456860915980000014819639176982007742_" d="M300.57,277.33l0.05,2.07l-26.6,0.62
							c-0.15-0.68-0.22-1.37-0.22-2.06c0-2,0.66-4.89,4.18-5.72c5.59-1.31,9.95-4.67,9.38-16.19c0,0,5.29-1.3,4.53,4l7.1-0.17
							c0.2,2.98,0.66,5.94,1.38,8.84C301.11,271.03,300.57,277.33,300.57,277.33z"/>
					</defs>
					<clipPath id="SVGID_00000147197317821792531220000012498632631681841820_">
						<use xlink:href="#SVGID_00000065058794456860915980000014819639176982007742_"  style="overflow:visible;"/>
					</clipPath>
					<g style="clip-path:url(#SVGID_00000147197317821792531220000012498632631681841820_);">
						<path class="st64" d="M300.57,277.33l0.05,2.07l-26.6,0.62c-0.15-0.68-0.22-1.37-0.22-2.06c0-2,0.66-4.89,4.18-5.72
							c5.59-1.31,9.95-4.67,9.38-16.19c0,0,5.29-1.3,4.53,4l7.1-0.17c0.2,2.98,0.66,5.94,1.38,8.84
							C301.11,271.03,300.57,277.33,300.57,277.33z"/>
						<circle class="st34" cx="295.86" cy="271.68" r="2.81"/>
						
							<rect x="272.62" y="277.7" transform="matrix(0.9997 -0.0227 0.0227 0.9997 -6.3075 6.5791)" class="st34" width="28.35" height="7.15"/>
					</g>
				</g>
			</g>
		</g>
		<g id="leg-4">
			<g>
				<defs>
					<path id="SVGID_00000031191167575245471130000014118666114478486974_" d="M286.68,254.65c-0.44-0.01-0.83-0.3-0.95-0.73
						c-0.68-2.59-1.09-5.32-1.59-7.94c-0.62-3.28-1.19-6.57-1.71-9.87c-1.02-6.48-1.85-12.99-2.49-19.54
						c-1.9-19.57-0.19-38.27,7.57-56.49c1.94-4.57,6.09-14.9,12.29-13.3c4.19,1.07,5.59,6.76,5.82,10.44
						c0.69,10.73-0.35,21.48-1.75,32.11c-0.9,6.89-2.12,13.74-2.59,20.67s0.26,13.69,1.08,20.55l1.37,11.45
						c0.43,3.57,1.24,7.34,1.38,11c0,0.51-0.38,0.94-0.89,1C300.9,254.16,289.71,254.53,286.68,254.65z"/>
				</defs>
				<clipPath id="SVGID_00000169534694400885427900000014684685345437970083_">
					<use xlink:href="#SVGID_00000031191167575245471130000014118666114478486974_"  style="overflow:visible;"/>
				</clipPath>
				<g style="clip-path:url(#SVGID_00000169534694400885427900000014684685345437970083_);">
					
						<linearGradient id="SVGID_00000018955732693271496520000016115800022448219041_" gradientUnits="userSpaceOnUse" x1="-271.2276" y1="277.9534" x2="-271.8076" y2="187.6534" gradientTransform="matrix(1 0 0 -1 564 424.7643)">
						<stop  offset="0" style="stop-color:#232738"/>
						<stop  offset="1" style="stop-color:#161B2D"/>
					</linearGradient>
					<path style="fill:url(#SVGID_00000018955732693271496520000016115800022448219041_);" d="M286.68,254.65
						c-0.44-0.01-0.83-0.3-0.95-0.73c-0.68-2.59-1.09-5.32-1.59-7.94c-0.62-3.28-1.19-6.57-1.71-9.87
						c-1.02-6.48-1.85-12.99-2.49-19.54c-1.9-19.57-0.19-38.27,7.57-56.49c1.94-4.57,6.09-14.9,12.29-13.3
						c4.19,1.07,5.59,6.76,5.82,10.44c0.69,10.73-0.35,21.48-1.75,32.11c-0.9,6.89-2.12,13.74-2.59,20.67s0.26,13.69,1.08,20.55
						l1.37,11.45c0.43,3.57,1.24,7.34,1.38,11c0,0.51-0.38,0.94-0.89,1C300.9,254.16,289.71,254.53,286.68,254.65z"/>
					<path class="st62" d="M282.47,207.36l0.05,0c5.04-0.35,9.41,3.45,9.76,8.49l0.4,5.79c0.35,5.04-3.45,9.41-8.49,9.76l-0.05,0
						c-5.04,0.35-9.41-3.45-9.76-8.49l-0.4-5.79C273.62,212.08,277.42,207.71,282.47,207.36z"/>
				</g>
			</g>
		</g>
		<path id="torso-2" class="st64" d="M320.81,162.76l-35.36,3.18c0.49-9-0.21-17.88-0.63-26.91c-0.35-7.33-0.45-14.69-0.28-22.08
			c0-1.42,0.08-2.84,0.12-4.26c0.07-4.34,0.6-8.66,1.57-12.89c2.05-8.1,6.6-14.38,16.61-17.32c1.76-0.52,3.53-1.23,5.32-0.69
			l0.26,0.09c1.3,0.61,2.43,1.54,3.28,2.7c1.36,1.61,2.52,3.38,3.44,5.28c2.25,4.92,3.72,10.15,4.37,15.52
			c0.48,3.27,0.78,6.49,1.05,9.46C320.89,118.87,321.89,162.65,320.81,162.76z"/>
		<g id="arm-5">
			<g>
				<defs>
					<path id="SVGID_00000124856636873065997550000004133839884493545351_" d="M292.41,92.73c-0.6,3.81-2.16,12.68-5.4,25.63
						c-0.28,1.06-1.17,1.85-2.26,2c-1.7,0.24-4.88,0.31-10.81-0.43c-9.17-1.13-15.52-1.82-17.91-2.08
						c-0.58-0.05-1.09,0.36-1.16,0.94l-0.92,8.14c-0.06,0.51,0.25,1,0.75,1.14c4.16,1.2,22.4,6.33,31.44,6.12
						c10.25-0.24,10-4.5,12.37-9.69c2.37-5.19,9.55-24.13,9.64-33.2c0.07-6.57-5.94-8.53-10.8-5.81
						C294.68,87.02,292.86,89.69,292.41,92.73z"/>
				</defs>
				<clipPath id="SVGID_00000016777873488538735190000001950783875078906269_">
					<use xlink:href="#SVGID_00000124856636873065997550000004133839884493545351_"  style="overflow:visible;"/>
				</clipPath>
				<g style="clip-path:url(#SVGID_00000016777873488538735190000001950783875078906269_);">
					<path class="st61" d="M292.41,92.73c-0.6,3.81-2.16,12.68-5.4,25.63c-0.28,1.06-1.17,1.85-2.26,2
						c-1.7,0.24-4.88,0.31-10.81-0.43c-9.17-1.13-15.52-1.82-17.91-2.08c-0.58-0.05-1.09,0.36-1.16,0.94l-0.92,8.14
						c-0.06,0.51,0.25,1,0.75,1.14c4.16,1.2,22.4,6.33,31.44,6.12c10.25-0.24,10-4.5,12.37-9.69c2.37-5.19,9.55-24.13,9.64-33.2
						c0.07-6.57-5.94-8.53-10.8-5.81C294.68,87.02,292.86,89.69,292.41,92.73z"/>
					<path class="st62" d="M291.81,136.56c1.55-0.67,3-1.53,4.34-2.55c1.43-1.21,2.71-2.57,3.83-4.07c0.76-1,1.77-2.26,1.49-3.58
						c-0.47-2.28-3-3-4.89-2.08c-1.15,0.68-2.1,1.66-2.75,2.83c-0.78,1.21-1.82,2.24-3.05,3c-1.27,0.65-2.43,1.5-3.41,2.54
						c-1.14,1.42-1.33,3.88,0.69,4.59C289.25,137.65,290.73,137.05,291.81,136.56z"/>
				</g>
			</g>
		</g>
		<g id="badge">
			<circle class="st34" cx="299.65" cy="96.38" r="4.36"/>
			<path class="st34" d="M294.35,104.85l0.56-2.4c0.08-0.34,0.42-0.56,0.77-0.48l4.64,1.09c0.34,0.08,0.56,0.42,0.48,0.77l-0.56,2.4
				c-0.08,0.34-0.42,0.56-0.77,0.48l-4.64-1.09C294.48,105.54,294.27,105.19,294.35,104.85z"/>
		</g>
		<path id="hair_b" class="st68" d="M288.92,75.7c0,0-2.37,8.55-3,10.44l3.66-0.85l6.44-8.45L288.92,75.7z"/>
		<path id="mouth" class="st69" d="M290.65,66.93c0.15,0-0.53,1.07-0.59,1.15c-0.73,0.88-1.89,1.26-3,1
			c-0.55-0.06-1.1-0.15-1.65-0.18c-0.09,0-1.61-0.08-1.46,0.16c0,0,1,1.63,4.16,1.75s5.26-3.8,5.26-3.8L290.65,66.93z"/>
		<path id="nose" class="st58" d="M286.65,57.2c0,0-2.52,2.65-2.73,3.39s0.36,1.35,1.3,2.07S286.65,57.2,286.65,57.2z"/>
		<path id="face" class="st59" d="M286.98,55.65l-2.53,9.52c-0.02,0.09,0.03,0.18,0.11,0.21c2.58,0.97,5.26,1.62,8,1.93
			c0,0-0.76,4.85-8.54,1.77c0,0-1,4-0.53,5.46s1.39,2.54,5,2.66c1.75,0.01,3.5,0.17,5.22,0.48l7.1-18.26L286.98,55.65z"/>
		<g id="eye">
			<path class="st70" d="M288.18,59.48l0.65-2.23c0.13-0.46,0.61-0.72,1.07-0.59l0,0c0.46,0.13,0.72,0.61,0.59,1.07l-0.65,2.23
				c-0.13,0.46-0.61,0.72-1.07,0.59l0,0C288.31,60.42,288.05,59.94,288.18,59.48z"/>
		</g>
		
			<linearGradient id="hair_00000139273476940933313480000001568182544690909879_" gradientUnits="userSpaceOnUse" x1="-384.612" y1="138.9109" x2="-381.962" y2="189.741" gradientTransform="matrix(0.9989 -0.0459 -0.0459 -0.9989 694.8868 216.1816)">
			<stop  offset="0" style="stop-color:#585590"/>
			<stop  offset="1" style="stop-color:#3C3873"/>
		</linearGradient>
		<path id="hair" style="fill:url(#hair_00000139273476940933313480000001568182544690909879_);" d="M324.66,52.79
			c0.26,5.69,0.64,11.45-0.69,17.05c-0.54,2.26-1.38,4.74-3.15,6.34c-1.61,1.46-3.64,1.58-5.68,1.85c-1.65,0.22-4.28-0.38-5.33,1.25
			c-0.38,0.75-0.68,1.53-0.91,2.34c-0.8,2.06-2.48,3.06-4.36,3.94c-0.08-0.47-0.1-1-0.14-1.45c-1.22,2.39-3.51,3.27-6.13,3.57
			l0.05-1.3c-0.31,1.2-1.46,1.99-2.69,1.85c-2.29-0.09-5.54-0.54-6.89,0.71c0.76-4.3,2.25-8.45,4.4-12.25
			c3.51-6.07,6.84-16.08,6.84-16.08s-14.55-4.17-15.49-5.18s0-9.16,4.13-13.58c4.9-5.28,12-5.57,18.47-3.62
			C314.48,40.47,323.95,43.77,324.66,52.79z"/>
		<g id="boot_b-2">
			<path class="st59" d="M347.36,270.25l0.59,2l-25.52,7.53c-0.32-0.62-0.58-1.27-0.75-1.94c-0.52-1.94-0.64-4.89,2.54-6.61
				c5.06-2.72,8.39-7.09,4.84-18.07c0,0,4.77-2.64,5.43,2.72l6.8-2c0.97,2.83,2.2,5.56,3.65,8.17
				C346.24,264.03,347.36,270.25,347.36,270.25z"/>
			<g>
				<defs>
					<path id="SVGID_00000116914967998245127350000005619660787114708647_" d="M347.36,270.25l0.59,2l-25.52,7.53
						c-0.32-0.62-0.58-1.27-0.75-1.94c-0.52-1.94-0.64-4.89,2.54-6.61c5.06-2.72,8.39-7.09,4.84-18.07c0,0,4.77-2.64,5.43,2.72
						l6.8-2c0.97,2.83,2.2,5.56,3.65,8.17C346.24,264.03,347.36,270.25,347.36,270.25z"/>
				</defs>
				<clipPath id="SVGID_00000134211467004775507540000000858127862938880685_">
					<use xlink:href="#SVGID_00000116914967998245127350000005619660787114708647_"  style="overflow:visible;"/>
				</clipPath>
				<g style="clip-path:url(#SVGID_00000134211467004775507540000000858127862938880685_);">
					<path class="st64" d="M347.36,270.25l0.59,2l-25.52,7.53c-0.32-0.62-0.58-1.27-0.75-1.94c-0.52-1.94-0.64-4.89,2.54-6.61
						c5.06-2.72,8.39-7.09,4.84-18.07c0,0,4.77-2.64,5.43,2.72l6.8-2c0.97,2.83,2.2,5.56,3.65,8.17
						C346.24,264.03,347.36,270.25,347.36,270.25z"/>
					<circle class="st34" cx="341.34" cy="266.02" r="2.81"/>
					
						<rect x="320.94" y="274.06" transform="matrix(0.9593 -0.2825 0.2825 0.9593 -64.783 105.9814)" class="st34" width="28.35" height="7.15"/>
				</g>
			</g>
		</g>
		<g id="leg-5">
			<g>
				<defs>
					<path id="SVGID_00000169527756078800264090000000691660004999127970_" d="M286.22,168.12c0,0.29,0.12,0.62,0.22,1
						c0.73,2.66,2.01,5.14,3.75,7.28c3.89,4.91,10.74,7.41,11.76,14.19c1.46,9.31,3.9,18.43,7.29,27.22
						c2.34,6.22,4.87,12.37,7.59,18.44c1.37,3.09,2.8,6.15,4.27,9.19c1.17,2.43,2.3,5,3.65,7.34c0.23,0.39,0.69,0.58,1.12,0.46
						c2.94-0.87,13.77-4.17,16.95-5.3c0.49-0.18,0.75-0.71,0.61-1.21c-1.09-3.5-2.88-7-4.24-10.35c-1.45-3.61-2.9-7.22-4.36-10.82
						c-2.61-6.48-5.11-12.91-6.47-19.79c-1.14-5.71-1.83-11.48-2.54-17.25c-1.29-11.84-3.24-23.59-5.83-35.21
						c0.28,1.16-3.85,3.23-4.65,3.51c-2.22,0.79-4.67,1.14-6.95,1.75c-3.79,0.99-7.51,2.24-11.14,3.73
						c-1.21,0.49-2.39,1.07-3.51,1.74c-1.31,0.63-2.72,1.06-4.16,1.26C286.98,165.88,285.81,165.81,286.22,168.12z"/>
				</defs>
				<clipPath id="SVGID_00000154402131948413379490000015982920823933228982_">
					<use xlink:href="#SVGID_00000169527756078800264090000000691660004999127970_"  style="overflow:visible;"/>
				</clipPath>
				<g style="clip-path:url(#SVGID_00000154402131948413379490000015982920823933228982_);">
					<path class="st64" d="M286.22,168.12c0,0.29,0.12,0.62,0.22,1c0.73,2.66,2.01,5.14,3.75,7.28c3.89,4.91,10.74,7.41,11.76,14.19
						c1.46,9.31,3.9,18.43,7.29,27.22c2.34,6.22,4.87,12.37,7.59,18.44c1.37,3.09,2.8,6.15,4.27,9.19c1.17,2.43,2.3,5,3.65,7.34
						c0.23,0.39,0.69,0.58,1.12,0.46c2.94-0.87,13.77-4.17,16.95-5.3c0.49-0.18,0.75-0.71,0.61-1.21c-1.09-3.5-2.88-7-4.24-10.35
						c-1.45-3.61-2.9-7.22-4.36-10.82c-2.61-6.48-5.11-12.91-6.47-19.79c-1.14-5.71-1.83-11.48-2.54-17.25
						c-1.29-11.84-3.24-23.59-5.83-35.21c0.28,1.16-3.85,3.23-4.65,3.51c-2.22,0.79-4.67,1.14-6.95,1.75
						c-3.79,0.99-7.51,2.24-11.14,3.73c-1.21,0.49-2.39,1.07-3.51,1.74c-1.31,0.63-2.72,1.06-4.16,1.26
						C286.98,165.88,285.81,165.81,286.22,168.12z"/>
					<path class="st62" d="M309.49,208.08l0.05-0.02c4.74-1.75,10,0.67,11.76,5.41l2.01,5.44c1.75,4.74-0.67,10-5.41,11.76
						l-0.05,0.02c-4.74,1.75-10-0.67-11.76-5.41l-2.01-5.44C302.33,215.1,304.75,209.83,309.49,208.08z"/>
				</g>
			</g>
		</g>
		<g id="belt">
			<path class="st62" d="M302.68,148.16h2.86c0.67,0,1.22,0.55,1.22,1.22v6.83c0,0.67-0.55,1.22-1.22,1.22h-2.86
				c-0.67,0-1.22-0.55-1.22-1.22v-6.83C301.46,148.71,302.01,148.16,302.68,148.16z"/>
			<path class="st62" d="M291.82,148.16h2.86c0.67,0,1.22,0.55,1.22,1.22v6.83c0,0.67-0.55,1.22-1.22,1.22h-2.86
				c-0.67,0-1.22-0.55-1.22-1.22v-6.83C290.6,148.71,291.15,148.16,291.82,148.16z"/>
			<path class="st62" d="M312.49,148.16h2.86c0.67,0,1.22,0.55,1.22,1.22v6.83c0,0.67-0.55,1.22-1.22,1.22h-2.86
				c-0.67,0-1.22-0.55-1.22-1.22v-6.83C311.27,148.71,311.82,148.16,312.49,148.16z"/>
		</g>
	</g>
	<g id="ladder">
		<path class="st74" d="M285.86,278.7h13.08c2.6,0,4.7,2.1,4.7,4.7v0c0,2.6-2.1,4.7-4.7,4.7h-13.08c-2.6,0-4.7-2.1-4.7-4.7v0
			C281.16,280.81,283.27,278.7,285.86,278.7z"/>
		<path class="st74" d="M291.35,299.96h13.08c2.6,0,4.7,2.1,4.7,4.7v0c0,2.6-2.1,4.7-4.7,4.7h-13.08c-2.6,0-4.7-2.1-4.7-4.7v0
			C286.65,302.07,288.76,299.96,291.35,299.96z"/>
		<path class="st74" d="M295.73,321.28h14.77c2.6,0,4.7,2.1,4.7,4.7v0c0,2.6-2.1,4.7-4.7,4.7h-14.77c-2.6,0-4.7-2.1-4.7-4.7v0
			C291.03,323.39,293.14,321.28,295.73,321.28z"/>
		<path class="st74" d="M300.54,342.67h13.08c2.6,0,4.7,2.1,4.7,4.7v0c0,2.6-2.1,4.7-4.7,4.7h-13.08c-2.6,0-4.7-2.1-4.7-4.7v0
			C295.84,344.78,297.95,342.67,300.54,342.67z"/>
		<path class="st74" d="M303.45,364.05h18.21c2.6,0,4.7,2.1,4.7,4.7v0c0,2.6-2.1,4.7-4.7,4.7h-18.21c-2.6,0-4.7-2.1-4.7-4.7v0
			C298.75,366.16,300.86,364.05,303.45,364.05z"/>
		<line class="st75" x1="232.04" y1="227.85" x2="273.41" y2="227.85"/>
		<path class="st76" d="M202.28,388.52l32.53-179.42c1.56-8.68,9.11-14.99,17.93-15l0,0c8.82,0.01,16.37,6.32,17.93,15l32.51,179.42
			"/>
	</g>
</g>
</svg>
