<svg version="1.1" xmlns="http://www.w3.org/2000/svg" xmlns:xlink="http://www.w3.org/1999/xlink" x="0px" y="0px"
	 viewBox="0 0 512 512" style="enable-background:new 0 0 512 512;" xml:space="preserve">
<style type="text/css">
	.st3{fill-rule:evenodd;clip-rule:evenodd;}
</style>
<g id="Setttings">
	<path class="st3" d="M256.04,403.2c-81.3,0-147.18-65.92-147.18-147.2c0-81.31,65.88-147.21,147.18-147.21
		c81.3,0,147.18,65.89,147.18,147.21C403.22,337.28,337.34,403.2,256.04,403.2z M502.27,311.47c-23.04-8-39.61-29.69-39.61-55.47
		c0-25.78,16.57-47.47,39.58-55.47c6.97-2.41,11.27-9.8,9.27-16.89c-5.86-20.72-14.18-40.35-24.6-58.65
		c-3.47-6.12-11.09-8.39-17.6-5.74c-11.33,4.65-24.42,5.86-37.99,2.38c-19.83-5.12-36.05-21.28-41.28-41.08
		c-3.59-13.63-2.38-26.78,2.24-38.17c2.62-6.47,0.35-14.1-5.77-17.57C368.36,14.53,348.88,6.29,328.4,0.49
		c-7.12-2-14.48,2.27-16.89,9.24c-8,23.04-29.69,39.61-55.47,39.61c-25.75,0-47.46-16.57-55.44-39.58
		c-2.44-6.97-9.83-11.27-16.92-9.27c-20.83,5.89-40.58,14.27-58.97,24.78c-5.91,3.38-8.42,10.8-5.83,17.13
		c4.33,10.62,5.65,22.75,2.88,35.4c-4.56,20.78-21.01,38.17-41.58,43.67c-13.48,3.62-26.42,2.47-37.66-2
		c-6.47-2.59-14.06-0.29-17.51,5.77c-10.39,18.3-18.68,37.96-24.51,58.68c-2,7.03,2.21,14.33,9.06,16.83
		c22.69,8.18,38.93,29.72,38.93,55.24c0,25.52-16.24,47.06-38.96,55.24c-6.86,2.47-11.03,9.77-9.06,16.8
		c5.21,18.45,12.42,36.08,21.27,52.68c3.5,6.53,11.62,8.77,18.36,5.68c17.51-8.03,39.52-7.77,61.91,7c3.44,2.27,6.62,5.44,8.89,8.86
		c15.51,23.51,15.07,46.5,5.83,64.36c-3.38,6.56-1.41,14.74,4.94,18.48c19.24,11.3,40.08,20.22,62.06,26.4
		c7.09,2,14.39-2.24,16.77-9.21c7.92-23.13,29.69-39.82,55.52-39.82c25.83,0,47.61,16.69,55.52,39.82
		c2.38,6.95,9.68,11.21,16.77,9.21c21.69-6.09,42.25-14.89,61.32-25.99c6.41-3.74,8.36-12.01,4.91-18.57
		c-9.36-17.89-9.92-40.99,5.62-64.6c2.27-3.41,5.44-6.62,8.89-8.89c22.72-15.04,44.93-15.1,62.53-6.77
		c6.74,3.18,14.95,0.97,18.48-5.59c8.95-16.6,16.15-34.26,21.42-52.77C513.51,321.24,509.24,313.89,502.27,311.47z"/>
</g>
</svg>
