<svg version="1.1" xmlns="http://www.w3.org/2000/svg" xmlns:xlink="http://www.w3.org/1999/xlink" x="0px" y="0px"
	 viewBox="0 0 1584.83 388.31" style="enable-background:new 0 0 1584.83 388.31;" xml:space="preserve">
<style type="text/css">
	.st5{fill:#FFFFFF;}
	.st6{fill-rule:evenodd;clip-rule:evenodd;fill:#FFFFFF;}
</style>
<g id="Layer_3">
	<g>
		<path class="st5" d="M576.34,361.73c-13.83,0-27-1.04-39.51-3.11c-12.51-2.07-23.3-4.53-32.35-7.36
			c-9.06-2.83-15.52-5.42-19.39-7.78l9.95-47.49c5.25,3.04,11.96,6.05,20.12,9.02c8.16,2.97,17.18,5.43,27.06,7.36
			c9.88,1.94,19.87,2.9,29.97,2.9c17.28,0,30.24-2.76,38.88-8.29c8.64-5.53,12.96-14.45,12.96-26.75c0-8.57-2.28-15.76-6.84-21.57
			c-4.56-5.81-11.68-11.44-21.36-16.9c-9.68-5.46-21.98-11.78-36.91-18.97c-12.72-6.22-24.82-13.65-36.29-22.29
			c-11.48-8.64-20.84-18.87-28.1-30.69c-7.26-11.82-10.89-25.54-10.89-41.17c0-14.65,2.83-27.13,8.5-37.43
			c5.67-10.3,13.44-18.73,23.33-25.3c9.88-6.56,21.15-11.37,33.8-14.41c12.65-3.04,26.09-4.56,40.33-4.56
			c20.46,0,37.29,1.94,50.5,5.81c13.2,3.87,22.5,7.6,27.89,11.2l-10.37,45.62c-6.78-4.56-15.55-8.71-26.34-12.44
			c-10.78-3.73-23.85-5.6-39.19-5.6c-9.95,0-18.77,1.21-26.44,3.63c-7.67,2.42-13.72,6.05-18.15,10.89
			c-4.43,4.84-6.64,10.85-6.64,18.04c0,8.3,1.9,15.31,5.7,21.05c3.8,5.74,9.95,11.23,18.46,16.49c8.5,5.26,19.53,11.27,33.08,18.04
			c11.47,5.67,22.33,11.55,32.56,17.63c10.23,6.08,19.29,12.79,27.17,20.12c7.88,7.33,14.07,15.69,18.56,25.09
			c4.49,9.4,6.74,20.19,6.74,32.35c0,18.66-4.35,34.46-13.06,47.39c-8.71,12.93-21.05,22.74-37.02,29.45
			C617.09,358.38,598.18,361.73,576.34,361.73z"/>
		<path class="st5" d="M809.01,361.73c-13.14,0-24.16-2.11-33.08-6.33c-8.92-4.22-15.62-11.16-20.12-20.84
			c-4.49-9.68-6.74-22.74-6.74-39.19V168.04h-28.62v-31.11c10.23-2.9,18.28-5.56,24.16-7.98c5.87-2.42,10.13-6.88,12.75-13.38
			c1.24-3.18,2.66-6.91,4.25-11.2c1.59-4.28,3.25-8.95,4.98-14c1.73-5.04,3.56-10.27,5.5-15.66h35.05v52.67h62.84v40.65h-62.84
			v101.2c0,14.66,0.69,25.37,2.07,32.14c1.38,6.78,3.97,11.09,7.78,12.96c3.8,1.87,9.16,2.8,16.07,2.8c3.73,0,8.02-0.45,12.86-1.35
			c4.84-0.9,9.44-2.04,13.79-3.42c4.35-1.38,7.78-2.83,10.27-4.36l8.29,32.56c-4.01,3.46-9.64,6.78-16.9,9.95
			c-7.26,3.18-15.45,5.84-24.57,7.98S818.41,361.73,809.01,361.73z"/>
		<path class="st5" d="M987.77,361.73c-14.38,0-27.03-2.9-37.95-8.71c-10.92-5.81-19.46-13.93-25.61-24.37
			c-6.15-10.44-9.23-22.64-9.23-36.6c0-14.24,3.87-26.47,11.61-36.71c7.74-10.23,18.18-18.11,31.31-23.64
			c9.12-3.87,18.97-6.84,29.55-8.92c10.58-2.07,21.15-3.53,31.73-4.36c10.58-0.83,20.43-1.24,29.55-1.24l10.37,12.86l-10.37,19.08
			c-5.12,0.14-10.99,0.55-17.63,1.24c-6.64,0.69-13.1,1.73-19.39,3.11c-6.29,1.38-11.58,3.11-15.86,5.18
			c-5.95,2.63-11.09,6.15-15.45,10.58c-4.35,4.43-6.53,10.92-6.53,19.49c0,11.34,3.14,19.8,9.44,25.4c6.29,5.6,14.83,8.4,25.61,8.4
			c5.53,0,11.09-0.79,16.69-2.38c5.6-1.59,10.5-3.42,14.72-5.5c4.22-2.07,7.02-3.94,8.4-5.6l10.58,12.03l-7.47,17.83
			c-6.22,5.53-14.86,10.72-25.92,15.55C1014.87,359.31,1002.15,361.73,987.77,361.73z M1106.81,358.41h-54.96v-34.42h-3.11V198.52
			c0-12.3-3.25-20.39-9.75-24.26c-6.5-3.87-15.83-5.81-28-5.81c-8.71,0-17.77,0.8-27.17,2.38c-9.4,1.59-18.22,3.63-26.44,6.12
			c-8.23,2.49-14.9,5.18-20.01,8.09l-12.86-38.16c4.15-2.49,11.06-5.56,20.74-9.23c9.68-3.66,20.81-6.88,33.39-9.64
			c12.58-2.76,25.23-4.15,37.95-4.15c19.91,0,36.57,2.32,49.98,6.95c13.41,4.63,23.47,12.72,30.17,24.26
			c6.7,11.54,10.06,27.76,10.06,48.63V358.41z"/>
		<path class="st5" d="M1383.86,127.39l-152.84,161.55l3.32-12.86l0.83,40.02v42.31h-56.82V221.12V22.04h56.82v157.4l-2.28,63.67
			l-10.16-8.71l93.94-107.01H1383.86z M1256.95,251.19l38.57-38.99l96.64,146.2h-65.32L1256.95,251.19z"/>
		<path class="st5" d="M1429.69,358.41V127.6h49.98l3.53,33.8l4.56,13.27v183.74H1429.69z M1484.44,201.42l-2.9-40.02
			c2.35-5.94,6.84-11.79,13.48-17.52c6.64-5.74,14.48-10.47,23.54-14.21c9.05-3.73,18.56-5.6,28.51-5.6c4.56,0,8.64,0.21,12.24,0.62
			c3.59,0.42,6.22,1.11,7.88,2.07v55.99c-1.94-1.1-4.94-2.31-9.02-3.63c-4.08-1.31-10.4-1.97-18.98-1.97
			c-9.54,0-17.83,1.38-24.88,4.15c-7.05,2.77-13.07,6.01-18.04,9.75C1491.28,194.79,1487.34,198.24,1484.44,201.42z"/>
	</g>
</g>
<g id="Layer_4">
	<path class="st6" d="M55.05,358.41c-20.16,0-36.5-16.34-36.5-36.5V66.39c0-20.16,16.34-36.5,36.5-36.5h255.52
		c20.16,0,36.5,16.34,36.5,36.5v255.52c0,20.16-16.34,36.5-36.5,36.5H55.05z M73.31,321.91c-10.08,0-18.25-8.17-18.25-18.25v-73.01
		c0-10.08,8.17-18.25,18.25-18.25h182.52c10.08,0,18.25,8.17,18.25,18.25v73.01c0,10.08-8.17,18.25-18.25,18.25H73.31z
		 M55.05,157.64c0,10.08,8.17,18.25,18.25,18.25h109.51c10.08,0,18.25-8.17,18.25-18.25V84.64c0-10.08-8.17-18.25-18.25-18.25H73.31
		c-10.08,0-18.25,8.17-18.25,18.25V157.64z"/>
</g>
</svg>
